<svg xmlns="http://www.w3.org/2000/svg" xmlns:xlink="http://www.w3.org/1999/xlink" width="115" zoomAndPan="magnify" viewBox="0 0 86.25 86.249996" height="115" preserveAspectRatio="xMidYMid meet" version="1.2"><defs><filter x="0%" y="0%" width="100%" filterUnits="objectBoundingBox" id="85a94160ef" height="100%"><feColorMatrix values="0 0 0 0 1 0 0 0 0 1 0 0 0 0 1 0 0 0 1 0" type="matrix" in="SourceGraphic"/></filter><clipPath id="bf865f4982"><path d="M 0.0390625 0.0390625 L 56.664062 0.0390625 L 56.664062 56.664062 L 0.0390625 56.664062 Z M 0.0390625 0.0390625 "/></clipPath><clipPath id="0b625ceb62"><rect x="0" width="57" y="0" height="57"/></clipPath><clipPath id="8e9033f4da"><path d="M 1 1 L 71.804688 1 L 71.804688 71.804688 L 1 71.804688 Z M 1 1 "/></clipPath><clipPath id="e47f103b6d"><rect x="0" width="72" y="0" height="72"/></clipPath><clipPath id="07746dea5b"><path d="M 21.691406 26 L 63.328125 26 L 63.328125 59 L 21.691406 59 Z M 21.691406 26 "/></clipPath></defs><g id="e1185b7f76"><g mask="url(#c6eae47df2)" transform="matrix(1,0,0,1,6,6)"><g clip-path="url(#e47f103b6d)"><g mask="url(#d48f180dd0)" transform="matrix(1,0,0,1,8,8)"><g id="00f7705269" clip-path="url(#0b625ceb62)"><g clip-rule="nonzero" clip-path="url(#bf865f4982)"><path style=" stroke:none;fill-rule:nonzero;fill:#9d6464;fill-opacity:1;" d="M 56.636719 28.382812 C 56.636719 29.308594 56.589844 30.230469 56.5 31.152344 C 56.410156 32.070312 56.273438 32.984375 56.09375 33.894531 C 55.914062 34.800781 55.6875 35.699219 55.417969 36.582031 C 55.152344 37.46875 54.839844 38.339844 54.484375 39.195312 C 54.132812 40.050781 53.734375 40.882812 53.300781 41.699219 C 52.863281 42.515625 52.386719 43.308594 51.875 44.078125 C 51.359375 44.847656 50.808594 45.589844 50.222656 46.304688 C 49.636719 47.019531 49.015625 47.707031 48.359375 48.359375 C 47.707031 49.015625 47.019531 49.636719 46.304688 50.222656 C 45.589844 50.808594 44.847656 51.359375 44.078125 51.875 C 43.308594 52.386719 42.515625 52.863281 41.699219 53.300781 C 40.882812 53.734375 40.050781 54.132812 39.195312 54.484375 C 38.339844 54.839844 37.46875 55.152344 36.582031 55.417969 C 35.699219 55.6875 34.800781 55.914062 33.894531 56.09375 C 32.984375 56.273438 32.070312 56.410156 31.152344 56.5 C 30.230469 56.589844 29.308594 56.636719 28.382812 56.636719 C 27.457031 56.636719 26.53125 56.589844 25.613281 56.5 C 24.691406 56.410156 23.777344 56.273438 22.871094 56.09375 C 21.960938 55.914062 21.066406 55.6875 20.179688 55.417969 C 19.292969 55.152344 18.425781 54.839844 17.570312 54.484375 C 16.714844 54.132812 15.878906 53.734375 15.0625 53.300781 C 14.246094 52.863281 13.453125 52.386719 12.683594 51.875 C 11.914062 51.359375 11.171875 50.808594 10.457031 50.222656 C 9.742188 49.636719 9.058594 49.015625 8.402344 48.359375 C 7.75 47.707031 7.128906 47.019531 6.539062 46.304688 C 5.953125 45.589844 5.402344 44.847656 4.890625 44.078125 C 4.375 43.308594 3.898438 42.515625 3.464844 41.699219 C 3.027344 40.882812 2.632812 40.050781 2.277344 39.195312 C 1.921875 38.339844 1.613281 37.46875 1.34375 36.582031 C 1.074219 35.699219 0.851562 34.800781 0.671875 33.894531 C 0.488281 32.984375 0.355469 32.070312 0.261719 31.152344 C 0.171875 30.230469 0.128906 29.308594 0.128906 28.382812 C 0.128906 27.457031 0.171875 26.53125 0.261719 25.613281 C 0.355469 24.691406 0.488281 23.777344 0.671875 22.871094 C 0.851562 21.960938 1.074219 21.066406 1.34375 20.179688 C 1.613281 19.292969 1.921875 18.425781 2.277344 17.570312 C 2.632812 16.714844 3.027344 15.878906 3.464844 15.0625 C 3.898438 14.246094 4.375 13.453125 4.890625 12.683594 C 5.402344 11.914062 5.953125 11.171875 6.539062 10.457031 C 7.128906 9.742188 7.75 9.058594 8.402344 8.402344 C 9.058594 7.75 9.742188 7.128906 10.457031 6.539062 C 11.171875 5.953125 11.914062 5.402344 12.683594 4.890625 C 13.453125 4.375 14.246094 3.898438 15.0625 3.464844 C 15.878906 3.027344 16.714844 2.632812 17.570312 2.277344 C 18.425781 1.921875 19.292969 1.613281 20.179688 1.34375 C 21.066406 1.074219 21.960938 0.851562 22.871094 0.671875 C 23.777344 0.488281 24.691406 0.355469 25.613281 0.261719 C 26.53125 0.171875 27.457031 0.128906 28.382812 0.128906 C 29.308594 0.128906 30.230469 0.171875 31.152344 0.261719 C 32.070312 0.355469 32.984375 0.488281 33.894531 0.671875 C 34.800781 0.851562 35.699219 1.074219 36.582031 1.34375 C 37.46875 1.613281 38.339844 1.921875 39.195312 2.277344 C 40.050781 2.632812 40.882812 3.027344 41.699219 3.464844 C 42.515625 3.898438 43.308594 4.375 44.078125 4.890625 C 44.847656 5.402344 45.589844 5.953125 46.304688 6.539062 C 47.019531 7.128906 47.707031 7.75 48.359375 8.402344 C 49.015625 9.058594 49.636719 9.742188 50.222656 10.457031 C 50.808594 11.171875 51.359375 11.914062 51.875 12.683594 C 52.386719 13.453125 52.863281 14.246094 53.300781 15.0625 C 53.734375 15.878906 54.132812 16.714844 54.484375 17.570312 C 54.839844 18.425781 55.152344 19.292969 55.417969 20.179688 C 55.6875 21.066406 55.914062 21.960938 56.09375 22.871094 C 56.273438 23.777344 56.410156 24.691406 56.5 25.613281 C 56.589844 26.53125 56.636719 27.457031 56.636719 28.382812 Z M 56.636719 28.382812 "/></g></g><mask id="d48f180dd0"><g filter="url(#85a94160ef)"><rect x="0" width="72" height="72" y="0" style="fill:#000000;fill-opacity:0.3;stroke:none;"/></g></mask></g><g clip-rule="nonzero" clip-path="url(#8e9033f4da)"><path style=" stroke:none;fill-rule:nonzero;fill:#9d6464;fill-opacity:1;" d="M 36.382812 1.0625 C 16.851562 1.0625 1.0625 16.851562 1.0625 36.382812 C 1.0625 55.914062 16.851562 71.699219 36.382812 71.699219 C 55.914062 71.699219 71.699219 55.914062 71.699219 36.382812 C 71.699219 16.851562 55.914062 1.0625 36.382812 1.0625 M 36.382812 64.636719 C 20.769531 64.636719 8.128906 51.992188 8.128906 36.382812 C 8.128906 20.769531 20.769531 8.128906 36.382812 8.128906 C 51.992188 8.128906 64.636719 20.769531 64.636719 36.382812 C 64.636719 51.992188 51.992188 64.636719 36.382812 64.636719 "/></g></g><mask id="c6eae47df2"><g filter="url(#85a94160ef)"><rect x="0" width="86.25" y="0" height="86.249996" style="fill:#000000;fill-opacity:0.71;stroke:none;"/></g></mask></g><g clip-rule="nonzero" clip-path="url(#07746dea5b)"><path style=" stroke:none;fill-rule:nonzero;fill:#a34229;fill-opacity:1;" d="M 45.015625 58.21875 C 42.40625 57.765625 41.417969 53.203125 40.324219 46.734375 C 37.441406 47.1875 33.476562 48.007812 29.214844 48.925781 C 28.523438 50.746094 27.332031 53.40625 25.652344 56.90625 C 24.710938 58.929688 21.652344 58.109375 21.691406 55.96875 C 21.691406 55.300781 22.742188 52.765625 24.839844 48.363281 C 23.949219 46.761719 24.746094 45.320312 26.527344 44.945312 C 30.148438 38.464844 36.710938 27.144531 38.679688 26.789062 C 41.464844 26.789062 40.933594 30.542969 42.242188 36.085938 L 45.347656 50.570312 C 46.652344 54.367188 48.71875 57.542969 45.015625 58.21875 M 37.65625 34.398438 L 31.695312 44.003906 C 33.378906 43.574219 35.929688 43.054688 39.347656 42.441406 Z M 55.917969 31.167969 C 55.820312 32.539062 55.726562 34.148438 55.792969 35.835938 C 59.652344 35.996094 63.25 35.125 63.316406 37.753906 C 63.339844 38.746094 62.519531 39.710938 61.523438 39.671875 C 59.71875 39.386719 57.804688 39.613281 55.835938 39.546875 L 55.835938 44.445312 C 56.007812 47.03125 51.90625 46.953125 52.125 44.445312 L 52.082031 39.628906 C 47.804688 39.925781 45.253906 39.910156 45.289062 37.855469 C 45.390625 35.421875 46.886719 36.351562 52.082031 35.917969 C 52.023438 33.996094 52.023438 32.195312 52.25 30.855469 C 52.738281 28.519531 55.90625 29.117188 55.917969 31.167969 "/></g><path style=" stroke:none;fill-rule:evenodd;fill:#a34229;fill-opacity:1;" d="M 46.257812 30.984375 C 46.257812 30.679688 46.316406 30.382812 46.433594 30.097656 C 46.550781 29.8125 46.71875 29.5625 46.9375 29.34375 C 47.15625 29.125 47.40625 28.957031 47.691406 28.839844 C 47.976562 28.722656 48.269531 28.664062 48.578125 28.664062 L 60.972656 28.664062 C 61.28125 28.664062 61.578125 28.722656 61.859375 28.839844 C 62.144531 28.957031 62.398438 29.125 62.613281 29.34375 C 62.832031 29.5625 63 29.8125 63.117188 30.097656 C 63.238281 30.382812 63.296875 30.679688 63.296875 30.984375 C 63.296875 31.292969 63.238281 31.589844 63.117188 31.875 C 63 32.160156 62.832031 32.410156 62.613281 32.628906 C 62.398438 32.847656 62.144531 33.015625 61.859375 33.132812 C 61.578125 33.25 61.28125 33.308594 60.972656 33.308594 L 57.097656 33.308594 L 57.097656 47.25 L 60.972656 47.25 C 61.28125 47.25 61.578125 47.308594 61.859375 47.425781 C 62.144531 47.546875 62.398438 47.714844 62.613281 47.929688 C 62.832031 48.148438 63 48.402344 63.117188 48.683594 C 63.238281 48.96875 63.296875 49.265625 63.296875 49.574219 C 63.296875 49.882812 63.238281 50.179688 63.117188 50.464844 C 63 50.75 62.832031 51 62.613281 51.21875 C 62.398438 51.433594 62.144531 51.601562 61.859375 51.722656 C 61.578125 51.839844 61.28125 51.898438 60.972656 51.898438 L 48.578125 51.898438 C 48.269531 51.898438 47.976562 51.839844 47.691406 51.722656 C 47.40625 51.601562 47.15625 51.433594 46.9375 51.21875 C 46.71875 51 46.550781 50.75 46.433594 50.464844 C 46.316406 50.179688 46.257812 49.882812 46.257812 49.574219 C 46.257812 49.265625 46.316406 48.96875 46.433594 48.683594 C 46.550781 48.402344 46.71875 48.148438 46.9375 47.929688 C 47.15625 47.714844 47.40625 47.546875 47.691406 47.425781 C 47.976562 47.308594 48.269531 47.25 48.578125 47.25 L 52.453125 47.25 L 52.453125 33.308594 L 48.578125 33.308594 C 48.269531 33.308594 47.976562 33.25 47.691406 33.132812 C 47.40625 33.015625 47.15625 32.847656 46.9375 32.628906 C 46.71875 32.410156 46.550781 32.160156 46.433594 31.875 C 46.316406 31.589844 46.257812 31.292969 46.257812 30.984375 M 48.578125 30.210938 C 48.367188 30.210938 48.183594 30.285156 48.03125 30.4375 C 47.878906 30.589844 47.804688 30.773438 47.804688 30.984375 C 47.804688 31.199219 47.878906 31.382812 48.03125 31.535156 C 48.183594 31.683594 48.367188 31.761719 48.578125 31.761719 L 54 31.761719 L 54 48.800781 L 48.578125 48.800781 C 48.367188 48.800781 48.183594 48.875 48.03125 49.027344 C 47.878906 49.179688 47.804688 49.359375 47.804688 49.574219 C 47.804688 49.789062 47.878906 49.96875 48.03125 50.121094 C 48.183594 50.273438 48.367188 50.347656 48.578125 50.347656 L 60.972656 50.347656 C 61.1875 50.347656 61.367188 50.273438 61.519531 50.121094 C 61.671875 49.96875 61.746094 49.789062 61.746094 49.574219 C 61.746094 49.359375 61.671875 49.179688 61.519531 49.027344 C 61.367188 48.875 61.1875 48.800781 60.972656 48.800781 L 55.550781 48.800781 L 55.550781 31.761719 L 60.972656 31.761719 C 61.1875 31.761719 61.367188 31.683594 61.519531 31.535156 C 61.671875 31.382812 61.746094 31.199219 61.746094 30.984375 C 61.746094 30.773438 61.671875 30.589844 61.519531 30.4375 C 61.367188 30.285156 61.1875 30.210938 60.972656 30.210938 Z M 48.578125 30.210938 "/></g></svg>