<svg xmlns="http://www.w3.org/2000/svg" xmlns:xlink="http://www.w3.org/1999/xlink" width="115" zoomAndPan="magnify" viewBox="0 0 86.25 86.249996" height="115" preserveAspectRatio="xMidYMid meet" version="1.2"><defs><filter x="0%" y="0%" width="100%" filterUnits="objectBoundingBox" id="b4a6f8b578" height="100%"><feColorMatrix values="0 0 0 0 1 0 0 0 0 1 0 0 0 0 1 0 0 0 1 0" type="matrix" in="SourceGraphic"/></filter><clipPath id="27fb2f6f70"><path d="M 0.0390625 0.0390625 L 56.664062 0.0390625 L 56.664062 56.664062 L 0.0390625 56.664062 Z M 0.0390625 0.0390625 "/></clipPath><clipPath id="698334f2f6"><rect x="0" width="57" y="0" height="57"/></clipPath><clipPath id="d3aa847f0c"><path d="M 1 1 L 71.804688 1 L 71.804688 71.804688 L 1 71.804688 Z M 1 1 "/></clipPath><clipPath id="884d7807e4"><rect x="0" width="72" y="0" height="72"/></clipPath></defs><g id="845aceaf38"><g mask="url(#c000f24c71)" transform="matrix(1,0,0,1,6,6)"><g clip-path="url(#884d7807e4)"><g mask="url(#eecda88e17)" transform="matrix(1,0,0,1,8,8)"><g id="574fe802a5" clip-path="url(#698334f2f6)"><g clip-rule="nonzero" clip-path="url(#27fb2f6f70)"><path style=" stroke:none;fill-rule:nonzero;fill:#9d6464;fill-opacity:1;" d="M 56.636719 28.382812 C 56.636719 29.308594 56.589844 30.230469 56.5 31.152344 C 56.410156 32.070312 56.273438 32.984375 56.09375 33.894531 C 55.914062 34.800781 55.6875 35.699219 55.417969 36.582031 C 55.152344 37.46875 54.839844 38.339844 54.484375 39.195312 C 54.132812 40.050781 53.734375 40.882812 53.300781 41.699219 C 52.863281 42.515625 52.386719 43.308594 51.875 44.078125 C 51.359375 44.847656 50.808594 45.589844 50.222656 46.304688 C 49.636719 47.019531 49.015625 47.707031 48.359375 48.359375 C 47.707031 49.015625 47.019531 49.636719 46.304688 50.222656 C 45.589844 50.808594 44.847656 51.359375 44.078125 51.875 C 43.308594 52.386719 42.515625 52.863281 41.699219 53.300781 C 40.882812 53.734375 40.050781 54.132812 39.195312 54.484375 C 38.339844 54.839844 37.46875 55.152344 36.582031 55.417969 C 35.699219 55.6875 34.800781 55.914062 33.894531 56.09375 C 32.984375 56.273438 32.070312 56.410156 31.152344 56.5 C 30.230469 56.589844 29.308594 56.636719 28.382812 56.636719 C 27.457031 56.636719 26.53125 56.589844 25.613281 56.5 C 24.691406 56.410156 23.777344 56.273438 22.871094 56.09375 C 21.960938 55.914062 21.066406 55.6875 20.179688 55.417969 C 19.292969 55.152344 18.425781 54.839844 17.570312 54.484375 C 16.714844 54.132812 15.878906 53.734375 15.0625 53.300781 C 14.246094 52.863281 13.453125 52.386719 12.683594 51.875 C 11.914062 51.359375 11.171875 50.808594 10.457031 50.222656 C 9.742188 49.636719 9.058594 49.015625 8.402344 48.359375 C 7.75 47.707031 7.128906 47.019531 6.539062 46.304688 C 5.953125 45.589844 5.402344 44.847656 4.890625 44.078125 C 4.375 43.308594 3.898438 42.515625 3.464844 41.699219 C 3.027344 40.882812 2.632812 40.050781 2.277344 39.195312 C 1.921875 38.339844 1.613281 37.46875 1.34375 36.582031 C 1.074219 35.699219 0.851562 34.800781 0.671875 33.894531 C 0.488281 32.984375 0.355469 32.070312 0.261719 31.152344 C 0.171875 30.230469 0.128906 29.308594 0.128906 28.382812 C 0.128906 27.457031 0.171875 26.53125 0.261719 25.613281 C 0.355469 24.691406 0.488281 23.777344 0.671875 22.871094 C 0.851562 21.960938 1.074219 21.066406 1.34375 20.179688 C 1.613281 19.292969 1.921875 18.425781 2.277344 17.570312 C 2.632812 16.714844 3.027344 15.878906 3.464844 15.0625 C 3.898438 14.246094 4.375 13.453125 4.890625 12.683594 C 5.402344 11.914062 5.953125 11.171875 6.539062 10.457031 C 7.128906 9.742188 7.75 9.058594 8.402344 8.402344 C 9.058594 7.75 9.742188 7.128906 10.457031 6.539062 C 11.171875 5.953125 11.914062 5.402344 12.683594 4.890625 C 13.453125 4.375 14.246094 3.898438 15.0625 3.464844 C 15.878906 3.027344 16.714844 2.632812 17.570312 2.277344 C 18.425781 1.921875 19.292969 1.613281 20.179688 1.34375 C 21.066406 1.074219 21.960938 0.851562 22.871094 0.671875 C 23.777344 0.488281 24.691406 0.355469 25.613281 0.261719 C 26.53125 0.171875 27.457031 0.128906 28.382812 0.128906 C 29.308594 0.128906 30.230469 0.171875 31.152344 0.261719 C 32.070312 0.355469 32.984375 0.488281 33.894531 0.671875 C 34.800781 0.851562 35.699219 1.074219 36.582031 1.34375 C 37.46875 1.613281 38.339844 1.921875 39.195312 2.277344 C 40.050781 2.632812 40.882812 3.027344 41.699219 3.464844 C 42.515625 3.898438 43.308594 4.375 44.078125 4.890625 C 44.847656 5.402344 45.589844 5.953125 46.304688 6.539062 C 47.019531 7.128906 47.707031 7.75 48.359375 8.402344 C 49.015625 9.058594 49.636719 9.742188 50.222656 10.457031 C 50.808594 11.171875 51.359375 11.914062 51.875 12.683594 C 52.386719 13.453125 52.863281 14.246094 53.300781 15.0625 C 53.734375 15.878906 54.132812 16.714844 54.484375 17.570312 C 54.839844 18.425781 55.152344 19.292969 55.417969 20.179688 C 55.6875 21.066406 55.914062 21.960938 56.09375 22.871094 C 56.273438 23.777344 56.410156 24.691406 56.5 25.613281 C 56.589844 26.53125 56.636719 27.457031 56.636719 28.382812 Z M 56.636719 28.382812 "/></g></g><mask id="eecda88e17"><g filter="url(#b4a6f8b578)"><rect x="0" width="72" height="72" y="0" style="fill:#000000;fill-opacity:0.3;stroke:none;"/></g></mask></g><g clip-rule="nonzero" clip-path="url(#d3aa847f0c)"><path style=" stroke:none;fill-rule:nonzero;fill:#9d6464;fill-opacity:1;" d="M 36.382812 1.0625 C 16.851562 1.0625 1.0625 16.851562 1.0625 36.382812 C 1.0625 55.914062 16.851562 71.699219 36.382812 71.699219 C 55.914062 71.699219 71.699219 55.914062 71.699219 36.382812 C 71.699219 16.851562 55.914062 1.0625 36.382812 1.0625 M 36.382812 64.636719 C 20.769531 64.636719 8.128906 51.992188 8.128906 36.382812 C 8.128906 20.769531 20.769531 8.128906 36.382812 8.128906 C 51.992188 8.128906 64.636719 20.769531 64.636719 36.382812 C 64.636719 51.992188 51.992188 64.636719 36.382812 64.636719 "/></g></g><mask id="c000f24c71"><g filter="url(#b4a6f8b578)"><rect x="0" width="86.25" y="0" height="86.249996" style="fill:#000000;fill-opacity:0.71;stroke:none;"/></g></mask></g><path style=" stroke:none;fill-rule:nonzero;fill:#623a3a;fill-opacity:1;" d="M 53.34375 28.199219 L 31.660156 28.199219 C 31.355469 28.199219 31.050781 28.226562 30.753906 28.285156 C 30.453125 28.347656 30.164062 28.433594 29.878906 28.550781 C 29.597656 28.667969 29.332031 28.8125 29.078125 28.980469 C 28.824219 29.148438 28.589844 29.34375 28.375 29.558594 C 28.15625 29.773438 27.964844 30.007812 27.796875 30.261719 C 27.625 30.515625 27.484375 30.785156 27.367188 31.066406 C 27.25 31.347656 27.160156 31.640625 27.101562 31.9375 C 27.042969 32.238281 27.011719 32.539062 27.011719 32.84375 L 27.011719 54.53125 C 27.011719 54.835938 27.042969 55.136719 27.101562 55.4375 C 27.160156 55.738281 27.25 56.027344 27.367188 56.308594 C 27.484375 56.589844 27.625 56.859375 27.796875 57.113281 C 27.964844 57.367188 28.15625 57.601562 28.375 57.816406 C 28.589844 58.03125 28.824219 58.226562 29.078125 58.394531 C 29.332031 58.5625 29.597656 58.707031 29.878906 58.824219 C 30.164062 58.941406 30.453125 59.027344 30.753906 59.089844 C 31.050781 59.148438 31.355469 59.179688 31.660156 59.179688 L 53.34375 59.179688 C 53.601562 59.175781 53.855469 59.148438 54.105469 59.101562 L 54.570312 58.992188 L 54.753906 58.992188 L 55.328125 58.773438 L 55.53125 58.667969 C 55.683594 58.574219 55.855469 58.496094 56.011719 58.386719 C 56.21875 58.234375 56.414062 58.070312 56.597656 57.890625 L 56.707031 57.753906 C 56.859375 57.597656 57 57.433594 57.125 57.257812 L 57.265625 57.054688 C 57.371094 56.882812 57.464844 56.703125 57.542969 56.515625 C 57.585938 56.4375 57.621094 56.363281 57.652344 56.28125 C 57.730469 56.09375 57.777344 55.894531 57.835938 55.691406 L 57.835938 55.460938 C 57.925781 55.15625 57.976562 54.847656 57.992188 54.53125 L 57.992188 32.84375 C 57.992188 32.539062 57.960938 32.238281 57.902344 31.9375 C 57.84375 31.640625 57.753906 31.347656 57.640625 31.066406 C 57.523438 30.785156 57.378906 30.515625 57.210938 30.261719 C 57.039062 30.007812 56.847656 29.773438 56.632812 29.558594 C 56.414062 29.34375 56.179688 29.148438 55.925781 28.980469 C 55.671875 28.8125 55.40625 28.667969 55.125 28.550781 C 54.84375 28.433594 54.550781 28.347656 54.253906 28.285156 C 53.953125 28.226562 53.652344 28.199219 53.34375 28.199219 Z M 31.660156 56.078125 C 31.453125 56.078125 31.257812 56.039062 31.066406 55.960938 C 30.875 55.882812 30.707031 55.773438 30.5625 55.625 C 30.417969 55.480469 30.304688 55.3125 30.226562 55.125 C 30.148438 54.933594 30.109375 54.738281 30.109375 54.53125 L 30.109375 47.855469 L 35.207031 42.742188 C 35.351562 42.597656 35.519531 42.484375 35.710938 42.402344 C 35.902344 42.324219 36.101562 42.285156 36.304688 42.285156 C 36.511719 42.285156 36.710938 42.324219 36.902344 42.402344 C 37.09375 42.484375 37.261719 42.597656 37.40625 42.742188 L 50.726562 56.078125 Z M 54.894531 54.53125 C 54.894531 54.722656 54.855469 54.910156 54.785156 55.089844 C 54.75 55.164062 54.710938 55.238281 54.664062 55.304688 C 54.621094 55.371094 54.574219 55.433594 54.523438 55.492188 L 46.234375 47.203125 L 47.597656 45.839844 C 47.742188 45.695312 47.910156 45.582031 48.101562 45.5 C 48.292969 45.421875 48.492188 45.382812 48.699219 45.382812 C 48.90625 45.382812 49.101562 45.421875 49.292969 45.5 C 49.484375 45.582031 49.652344 45.695312 49.796875 45.839844 L 54.894531 50.953125 Z M 54.894531 46.570312 L 51.980469 43.6875 C 51.761719 43.480469 51.527344 43.292969 51.269531 43.128906 C 51.015625 42.96875 50.746094 42.828125 50.464844 42.71875 C 50.183594 42.605469 49.894531 42.519531 49.597656 42.464844 C 49.300781 42.40625 49 42.378906 48.699219 42.378906 C 48.394531 42.378906 48.09375 42.40625 47.796875 42.464844 C 47.5 42.519531 47.210938 42.605469 46.929688 42.71875 C 46.648438 42.828125 46.382812 42.96875 46.125 43.128906 C 45.871094 43.292969 45.632812 43.480469 45.414062 43.6875 L 44.050781 45.050781 L 39.589844 40.589844 C 39.371094 40.382812 39.132812 40.195312 38.878906 40.03125 C 38.625 39.867188 38.355469 39.730469 38.074219 39.621094 C 37.792969 39.507812 37.503906 39.421875 37.207031 39.367188 C 36.910156 39.308594 36.609375 39.28125 36.304688 39.28125 C 36.003906 39.28125 35.703125 39.308594 35.40625 39.367188 C 35.109375 39.421875 34.820312 39.507812 34.539062 39.621094 C 34.257812 39.730469 33.988281 39.867188 33.734375 40.03125 C 33.480469 40.195312 33.242188 40.382812 33.023438 40.589844 L 30.109375 43.472656 L 30.109375 32.84375 C 30.109375 32.640625 30.148438 32.441406 30.226562 32.25 C 30.304688 32.0625 30.417969 31.894531 30.5625 31.75 C 30.707031 31.605469 30.875 31.492188 31.066406 31.414062 C 31.257812 31.335938 31.453125 31.296875 31.660156 31.296875 L 53.34375 31.296875 C 53.550781 31.296875 53.75 31.335938 53.9375 31.414062 C 54.128906 31.492188 54.296875 31.605469 54.441406 31.75 C 54.585938 31.894531 54.699219 32.0625 54.777344 32.25 C 54.855469 32.441406 54.894531 32.640625 54.894531 32.84375 Z M 44.824219 34.394531 C 44.519531 34.394531 44.222656 34.453125 43.9375 34.570312 C 43.652344 34.6875 43.402344 34.855469 43.183594 35.074219 C 42.964844 35.292969 42.796875 35.542969 42.679688 35.828125 C 42.5625 36.113281 42.503906 36.410156 42.503906 36.71875 C 42.503906 37.023438 42.5625 37.320312 42.679688 37.605469 C 42.796875 37.890625 42.964844 38.140625 43.183594 38.359375 C 43.402344 38.578125 43.652344 38.746094 43.9375 38.863281 C 44.222656 38.980469 44.519531 39.039062 44.824219 39.039062 C 45.132812 39.039062 45.429688 38.980469 45.714844 38.863281 C 46 38.746094 46.25 38.578125 46.46875 38.359375 C 46.6875 38.140625 46.855469 37.890625 46.972656 37.605469 C 47.089844 37.320312 47.148438 37.023438 47.148438 36.71875 C 47.148438 36.410156 47.089844 36.113281 46.972656 35.828125 C 46.855469 35.542969 46.6875 35.292969 46.46875 35.074219 C 46.25 34.855469 46 34.6875 45.714844 34.570312 C 45.429688 34.453125 45.132812 34.394531 44.824219 34.394531 Z M 44.824219 34.394531 "/></g></svg>