<svg xmlns="http://www.w3.org/2000/svg" xmlns:xlink="http://www.w3.org/1999/xlink" width="115" zoomAndPan="magnify" viewBox="0 0 86.25 86.249996" height="115" preserveAspectRatio="xMidYMid meet" version="1.2"><defs><filter x="0%" y="0%" width="100%" filterUnits="objectBoundingBox" id="917575ac94" height="100%"><feColorMatrix values="0 0 0 0 1 0 0 0 0 1 0 0 0 0 1 0 0 0 1 0" type="matrix" in="SourceGraphic"/></filter><clipPath id="412860d22b"><path d="M 0.0390625 0.0390625 L 56.664062 0.0390625 L 56.664062 56.664062 L 0.0390625 56.664062 Z M 0.0390625 0.0390625 "/></clipPath><clipPath id="949a81344d"><rect x="0" width="57" y="0" height="57"/></clipPath><clipPath id="ab4dfb5237"><path d="M 1 1 L 71.804688 1 L 71.804688 71.804688 L 1 71.804688 Z M 1 1 "/></clipPath><clipPath id="7ac9ef60dc"><rect x="0" width="72" y="0" height="72"/></clipPath></defs><g id="945d78d683"><g mask="url(#823f6569f2)" transform="matrix(1,0,0,1,6,6)"><g clip-path="url(#7ac9ef60dc)"><g mask="url(#f92bd4f43d)" transform="matrix(1,0,0,1,8,8)"><g id="cd18d563ec" clip-path="url(#949a81344d)"><g clip-rule="nonzero" clip-path="url(#412860d22b)"><path style=" stroke:none;fill-rule:nonzero;fill:#9d6464;fill-opacity:1;" d="M 56.636719 28.382812 C 56.636719 29.308594 56.589844 30.230469 56.5 31.152344 C 56.410156 32.070312 56.273438 32.984375 56.09375 33.894531 C 55.914062 34.800781 55.6875 35.699219 55.417969 36.582031 C 55.152344 37.46875 54.839844 38.339844 54.484375 39.195312 C 54.132812 40.050781 53.734375 40.882812 53.300781 41.699219 C 52.863281 42.515625 52.386719 43.308594 51.875 44.078125 C 51.359375 44.847656 50.808594 45.589844 50.222656 46.304688 C 49.636719 47.019531 49.015625 47.707031 48.359375 48.359375 C 47.707031 49.015625 47.019531 49.636719 46.304688 50.222656 C 45.589844 50.808594 44.847656 51.359375 44.078125 51.875 C 43.308594 52.386719 42.515625 52.863281 41.699219 53.300781 C 40.882812 53.734375 40.050781 54.132812 39.195312 54.484375 C 38.339844 54.839844 37.46875 55.152344 36.582031 55.417969 C 35.699219 55.6875 34.800781 55.914062 33.894531 56.09375 C 32.984375 56.273438 32.070312 56.410156 31.152344 56.5 C 30.230469 56.589844 29.308594 56.636719 28.382812 56.636719 C 27.457031 56.636719 26.53125 56.589844 25.613281 56.5 C 24.691406 56.410156 23.777344 56.273438 22.871094 56.09375 C 21.960938 55.914062 21.066406 55.6875 20.179688 55.417969 C 19.292969 55.152344 18.425781 54.839844 17.570312 54.484375 C 16.714844 54.132812 15.878906 53.734375 15.0625 53.300781 C 14.246094 52.863281 13.453125 52.386719 12.683594 51.875 C 11.914062 51.359375 11.171875 50.808594 10.457031 50.222656 C 9.742188 49.636719 9.058594 49.015625 8.402344 48.359375 C 7.75 47.707031 7.128906 47.019531 6.539062 46.304688 C 5.953125 45.589844 5.402344 44.847656 4.890625 44.078125 C 4.375 43.308594 3.898438 42.515625 3.464844 41.699219 C 3.027344 40.882812 2.632812 40.050781 2.277344 39.195312 C 1.921875 38.339844 1.613281 37.46875 1.34375 36.582031 C 1.074219 35.699219 0.851562 34.800781 0.671875 33.894531 C 0.488281 32.984375 0.355469 32.070312 0.261719 31.152344 C 0.171875 30.230469 0.128906 29.308594 0.128906 28.382812 C 0.128906 27.457031 0.171875 26.53125 0.261719 25.613281 C 0.355469 24.691406 0.488281 23.777344 0.671875 22.871094 C 0.851562 21.960938 1.074219 21.066406 1.34375 20.179688 C 1.613281 19.292969 1.921875 18.425781 2.277344 17.570312 C 2.632812 16.714844 3.027344 15.878906 3.464844 15.0625 C 3.898438 14.246094 4.375 13.453125 4.890625 12.683594 C 5.402344 11.914062 5.953125 11.171875 6.539062 10.457031 C 7.128906 9.742188 7.75 9.058594 8.402344 8.402344 C 9.058594 7.75 9.742188 7.128906 10.457031 6.539062 C 11.171875 5.953125 11.914062 5.402344 12.683594 4.890625 C 13.453125 4.375 14.246094 3.898438 15.0625 3.464844 C 15.878906 3.027344 16.714844 2.632812 17.570312 2.277344 C 18.425781 1.921875 19.292969 1.613281 20.179688 1.34375 C 21.066406 1.074219 21.960938 0.851562 22.871094 0.671875 C 23.777344 0.488281 24.691406 0.355469 25.613281 0.261719 C 26.53125 0.171875 27.457031 0.128906 28.382812 0.128906 C 29.308594 0.128906 30.230469 0.171875 31.152344 0.261719 C 32.070312 0.355469 32.984375 0.488281 33.894531 0.671875 C 34.800781 0.851562 35.699219 1.074219 36.582031 1.34375 C 37.46875 1.613281 38.339844 1.921875 39.195312 2.277344 C 40.050781 2.632812 40.882812 3.027344 41.699219 3.464844 C 42.515625 3.898438 43.308594 4.375 44.078125 4.890625 C 44.847656 5.402344 45.589844 5.953125 46.304688 6.539062 C 47.019531 7.128906 47.707031 7.75 48.359375 8.402344 C 49.015625 9.058594 49.636719 9.742188 50.222656 10.457031 C 50.808594 11.171875 51.359375 11.914062 51.875 12.683594 C 52.386719 13.453125 52.863281 14.246094 53.300781 15.0625 C 53.734375 15.878906 54.132812 16.714844 54.484375 17.570312 C 54.839844 18.425781 55.152344 19.292969 55.417969 20.179688 C 55.6875 21.066406 55.914062 21.960938 56.09375 22.871094 C 56.273438 23.777344 56.410156 24.691406 56.5 25.613281 C 56.589844 26.53125 56.636719 27.457031 56.636719 28.382812 Z M 56.636719 28.382812 "/></g></g><mask id="f92bd4f43d"><g filter="url(#917575ac94)"><rect x="0" width="72" height="72" y="0" style="fill:#000000;fill-opacity:0.3;stroke:none;"/></g></mask></g><g clip-rule="nonzero" clip-path="url(#ab4dfb5237)"><path style=" stroke:none;fill-rule:nonzero;fill:#9d6464;fill-opacity:1;" d="M 36.382812 1.0625 C 16.851562 1.0625 1.0625 16.851562 1.0625 36.382812 C 1.0625 55.914062 16.851562 71.699219 36.382812 71.699219 C 55.914062 71.699219 71.699219 55.914062 71.699219 36.382812 C 71.699219 16.851562 55.914062 1.0625 36.382812 1.0625 M 36.382812 64.636719 C 20.769531 64.636719 8.128906 51.992188 8.128906 36.382812 C 8.128906 20.769531 20.769531 8.128906 36.382812 8.128906 C 51.992188 8.128906 64.636719 20.769531 64.636719 36.382812 C 64.636719 51.992188 51.992188 64.636719 36.382812 64.636719 "/></g></g><mask id="823f6569f2"><g filter="url(#917575ac94)"><rect x="0" width="86.25" y="0" height="86.249996" style="fill:#000000;fill-opacity:0.71;stroke:none;"/></g></mask></g><path style=" stroke:none;fill-rule:nonzero;fill:#623a3a;fill-opacity:1;" d="M 34.578125 29.800781 L 57.585938 27.5 L 57.585938 50.507812 C 57.585938 50.921875 57.546875 51.328125 57.464844 51.734375 C 57.386719 52.136719 57.265625 52.53125 57.109375 52.910156 C 56.953125 53.292969 56.757812 53.652344 56.527344 53.996094 C 56.300781 54.339844 56.039062 54.65625 55.75 54.945312 C 55.457031 55.238281 55.140625 55.496094 54.796875 55.726562 C 54.457031 55.957031 54.09375 56.148438 53.714844 56.304688 C 53.332031 56.464844 52.941406 56.582031 52.535156 56.664062 C 52.132812 56.742188 51.722656 56.785156 51.3125 56.785156 C 50.898438 56.785156 50.492188 56.742188 50.085938 56.664062 C 49.683594 56.582031 49.289062 56.464844 48.910156 56.304688 C 48.53125 56.148438 48.167969 55.957031 47.824219 55.726562 C 47.484375 55.496094 47.164062 55.238281 46.875 54.945312 C 46.582031 54.65625 46.324219 54.339844 46.09375 53.996094 C 45.863281 53.652344 45.671875 53.292969 45.515625 52.910156 C 45.355469 52.53125 45.238281 52.136719 45.15625 51.734375 C 45.078125 51.328125 45.035156 50.921875 45.035156 50.507812 C 45.035156 50.097656 45.078125 49.6875 45.15625 49.285156 C 45.238281 48.878906 45.355469 48.488281 45.515625 48.109375 C 45.671875 47.726562 45.863281 47.367188 46.09375 47.023438 C 46.324219 46.679688 46.582031 46.363281 46.875 46.070312 C 47.164062 45.78125 47.484375 45.519531 47.824219 45.292969 C 48.167969 45.0625 48.53125 44.871094 48.910156 44.710938 C 49.289062 44.554688 49.683594 44.433594 50.085938 44.355469 C 50.492188 44.273438 50.898438 44.234375 51.3125 44.234375 C 52.921875 44.234375 54.386719 44.839844 55.496094 45.824219 L 55.496094 35.949219 L 36.667969 38.042969 L 36.667969 52.601562 C 36.667969 53.011719 36.628906 53.421875 36.550781 53.824219 C 36.46875 54.230469 36.351562 54.621094 36.191406 55.003906 C 36.035156 55.382812 35.839844 55.746094 35.613281 56.085938 C 35.382812 56.429688 35.125 56.746094 34.832031 57.039062 C 34.539062 57.328125 34.222656 57.589844 33.882812 57.816406 C 33.539062 58.046875 33.175781 58.242188 32.796875 58.398438 C 32.414062 58.554688 32.023438 58.675781 31.617188 58.753906 C 31.214844 58.835938 30.808594 58.875 30.394531 58.875 C 29.984375 58.875 29.574219 58.835938 29.171875 58.753906 C 28.765625 58.675781 28.375 58.554688 27.992188 58.398438 C 27.613281 58.242188 27.25 58.046875 26.910156 57.816406 C 26.566406 57.589844 26.25 57.328125 25.957031 57.039062 C 25.667969 56.746094 25.40625 56.429688 25.175781 56.085938 C 24.949219 55.746094 24.753906 55.382812 24.597656 55.003906 C 24.441406 54.621094 24.320312 54.230469 24.242188 53.824219 C 24.160156 53.421875 24.121094 53.011719 24.121094 52.601562 C 24.121094 52.1875 24.160156 51.78125 24.242188 51.375 C 24.320312 50.972656 24.441406 50.582031 24.597656 50.199219 C 24.753906 49.820312 24.949219 49.457031 25.175781 49.113281 C 25.40625 48.773438 25.667969 48.453125 25.957031 48.164062 C 26.25 47.871094 26.566406 47.613281 26.910156 47.382812 C 27.25 47.15625 27.613281 46.960938 27.992188 46.804688 C 28.375 46.644531 28.765625 46.527344 29.171875 46.445312 C 29.574219 46.367188 29.984375 46.324219 30.394531 46.324219 C 32.003906 46.324219 33.46875 46.933594 34.578125 47.914062 Z M 36.667969 31.683594 L 36.667969 35.929688 L 55.496094 33.859375 L 55.496094 29.78125 Z M 34.578125 52.601562 C 34.578125 52.324219 34.550781 52.054688 34.496094 51.785156 C 34.445312 51.515625 34.363281 51.253906 34.261719 51 C 34.15625 50.746094 34.027344 50.503906 33.875 50.277344 C 33.71875 50.046875 33.546875 49.835938 33.351562 49.644531 C 33.160156 49.449219 32.949219 49.273438 32.71875 49.121094 C 32.492188 48.96875 32.25 48.839844 31.996094 48.734375 C 31.742188 48.628906 31.480469 48.550781 31.210938 48.496094 C 30.941406 48.445312 30.667969 48.417969 30.394531 48.417969 C 30.121094 48.417969 29.847656 48.445312 29.578125 48.496094 C 29.308594 48.550781 29.046875 48.628906 28.792969 48.734375 C 28.539062 48.839844 28.300781 48.96875 28.070312 49.121094 C 27.84375 49.273438 27.632812 49.449219 27.4375 49.644531 C 27.242188 49.835938 27.070312 50.046875 26.917969 50.277344 C 26.765625 50.503906 26.636719 50.746094 26.53125 51 C 26.425781 51.253906 26.34375 51.515625 26.292969 51.785156 C 26.238281 52.054688 26.210938 52.324219 26.210938 52.601562 C 26.210938 52.875 26.238281 53.148438 26.292969 53.417969 C 26.34375 53.6875 26.425781 53.949219 26.53125 54.203125 C 26.636719 54.457031 26.765625 54.695312 26.917969 54.925781 C 27.070312 55.152344 27.242188 55.363281 27.4375 55.558594 C 27.632812 55.753906 27.84375 55.925781 28.070312 56.078125 C 28.300781 56.230469 28.539062 56.359375 28.792969 56.464844 C 29.046875 56.570312 29.308594 56.648438 29.578125 56.703125 C 29.847656 56.757812 30.121094 56.785156 30.394531 56.785156 C 30.667969 56.785156 30.941406 56.757812 31.210938 56.703125 C 31.480469 56.648438 31.742188 56.570312 31.996094 56.464844 C 32.25 56.359375 32.492188 56.230469 32.71875 56.078125 C 32.949219 55.925781 33.160156 55.753906 33.351562 55.558594 C 33.546875 55.363281 33.71875 55.152344 33.875 54.925781 C 34.027344 54.695312 34.15625 54.457031 34.261719 54.203125 C 34.363281 53.949219 34.445312 53.6875 34.496094 53.417969 C 34.550781 53.148438 34.578125 52.875 34.578125 52.601562 M 55.496094 50.507812 C 55.496094 50.234375 55.46875 49.960938 55.414062 49.691406 C 55.359375 49.421875 55.28125 49.160156 55.175781 48.90625 C 55.070312 48.65625 54.941406 48.414062 54.789062 48.183594 C 54.636719 47.957031 54.464844 47.746094 54.269531 47.550781 C 54.074219 47.355469 53.863281 47.183594 53.636719 47.03125 C 53.40625 46.878906 53.167969 46.75 52.914062 46.644531 C 52.660156 46.539062 52.398438 46.460938 52.128906 46.40625 C 51.859375 46.351562 51.585938 46.324219 51.3125 46.324219 C 51.035156 46.324219 50.765625 46.351562 50.496094 46.40625 C 50.226562 46.460938 49.964844 46.539062 49.710938 46.644531 C 49.457031 46.75 49.214844 46.878906 48.988281 47.03125 C 48.757812 47.183594 48.546875 47.355469 48.355469 47.550781 C 48.160156 47.746094 47.984375 47.957031 47.832031 48.183594 C 47.679688 48.414062 47.550781 48.65625 47.445312 48.910156 C 47.339844 49.160156 47.261719 49.421875 47.207031 49.691406 C 47.15625 49.960938 47.128906 50.234375 47.128906 50.507812 C 47.128906 50.785156 47.15625 51.054688 47.207031 51.324219 C 47.261719 51.59375 47.339844 51.855469 47.445312 52.109375 C 47.550781 52.363281 47.679688 52.605469 47.832031 52.832031 C 47.984375 53.0625 48.160156 53.273438 48.355469 53.46875 C 48.546875 53.660156 48.757812 53.835938 48.988281 53.988281 C 49.214844 54.140625 49.457031 54.269531 49.710938 54.375 C 49.964844 54.480469 50.226562 54.558594 50.496094 54.613281 C 50.765625 54.664062 51.035156 54.691406 51.3125 54.691406 C 51.585938 54.691406 51.859375 54.664062 52.128906 54.613281 C 52.398438 54.558594 52.660156 54.480469 52.914062 54.375 C 53.167969 54.269531 53.40625 54.140625 53.636719 53.988281 C 53.863281 53.835938 54.074219 53.660156 54.269531 53.46875 C 54.464844 53.273438 54.636719 53.0625 54.789062 52.832031 C 54.941406 52.605469 55.070312 52.363281 55.175781 52.109375 C 55.28125 51.855469 55.359375 51.59375 55.414062 51.324219 C 55.46875 51.054688 55.496094 50.785156 55.496094 50.507812 "/></g></svg>