<svg xmlns="http://www.w3.org/2000/svg" xmlns:xlink="http://www.w3.org/1999/xlink" width="154" zoomAndPan="magnify" viewBox="0 0 115.5 115.499996" height="154" preserveAspectRatio="xMidYMid meet" version="1.2"><defs><filter x="0%" y="0%" width="100%" filterUnits="objectBoundingBox" id="a2f5a5e4a1" height="100%"><feColorMatrix values="0 0 0 0 1 0 0 0 0 1 0 0 0 0 1 0 0 0 1 0" type="matrix" in="SourceGraphic"/></filter><clipPath id="443cf694b7"><path d="M 0.117188 0.117188 L 76.824219 0.117188 L 76.824219 76.824219 L 0.117188 76.824219 Z M 0.117188 0.117188 "/></clipPath><clipPath id="67b7cb8d86"><rect x="0" width="77" y="0" height="77"/></clipPath><clipPath id="b76617f522"><path d="M 0.558594 0.558594 L 96.621094 0.558594 L 96.621094 96.621094 L 0.558594 96.621094 Z M 0.558594 0.558594 "/></clipPath><clipPath id="32b7ef2b61"><rect x="0" width="97" y="0" height="97"/></clipPath></defs><g id="05e8640b5f"><g mask="url(#712d023f25)" transform="matrix(1,0,0,1,9,9)"><g clip-path="url(#32b7ef2b61)"><g mask="url(#d6a1a8a714)" transform="matrix(1,0,0,1,10,10)"><g id="c35164c8b9" clip-path="url(#67b7cb8d86)"><g clip-rule="nonzero" clip-path="url(#443cf694b7)"><path style=" stroke:none;fill-rule:nonzero;fill:#9d6464;fill-opacity:1;" d="M 76.824219 38.496094 C 76.824219 39.75 76.765625 41.003906 76.640625 42.253906 C 76.519531 43.5 76.332031 44.742188 76.089844 45.972656 C 75.84375 47.203125 75.539062 48.421875 75.175781 49.621094 C 74.808594 50.824219 74.386719 52.003906 73.90625 53.164062 C 73.425781 54.324219 72.890625 55.457031 72.300781 56.5625 C 71.707031 57.671875 71.0625 58.746094 70.367188 59.789062 C 69.667969 60.835938 68.921875 61.839844 68.125 62.8125 C 67.328125 63.78125 66.488281 64.710938 65.597656 65.597656 C 64.710938 66.488281 63.78125 67.328125 62.8125 68.125 C 61.839844 68.921875 60.835938 69.667969 59.789062 70.367188 C 58.746094 71.0625 57.671875 71.707031 56.5625 72.300781 C 55.457031 72.890625 54.324219 73.425781 53.164062 73.90625 C 52.003906 74.386719 50.824219 74.808594 49.621094 75.175781 C 48.421875 75.539062 47.203125 75.84375 45.972656 76.089844 C 44.742188 76.332031 43.5 76.519531 42.253906 76.640625 C 41.003906 76.765625 39.75 76.824219 38.496094 76.824219 C 37.238281 76.824219 35.988281 76.765625 34.738281 76.640625 C 33.488281 76.519531 32.25 76.332031 31.015625 76.089844 C 29.785156 75.84375 28.570312 75.539062 27.367188 75.175781 C 26.167969 74.808594 24.988281 74.386719 23.828125 73.90625 C 22.667969 73.425781 21.535156 72.890625 20.425781 72.300781 C 19.320312 71.707031 18.242188 71.0625 17.199219 70.367188 C 16.15625 69.667969 15.148438 68.921875 14.179688 68.125 C 13.207031 67.328125 12.28125 66.488281 11.390625 65.597656 C 10.503906 64.710938 9.660156 63.78125 8.867188 62.8125 C 8.070312 61.839844 7.324219 60.835938 6.625 59.789062 C 5.925781 58.746094 5.28125 57.671875 4.691406 56.5625 C 4.097656 55.457031 3.5625 54.324219 3.082031 53.164062 C 2.601562 52.003906 2.179688 50.824219 1.816406 49.621094 C 1.449219 48.421875 1.148438 47.203125 0.902344 45.972656 C 0.65625 44.742188 0.472656 43.5 0.351562 42.253906 C 0.226562 41.003906 0.164062 39.75 0.164062 38.496094 C 0.164062 37.238281 0.226562 35.988281 0.351562 34.738281 C 0.472656 33.488281 0.65625 32.25 0.902344 31.015625 C 1.148438 29.785156 1.449219 28.570312 1.816406 27.367188 C 2.179688 26.167969 2.601562 24.988281 3.082031 23.828125 C 3.5625 22.667969 4.097656 21.535156 4.691406 20.425781 C 5.28125 19.320312 5.925781 18.242188 6.625 17.199219 C 7.324219 16.15625 8.070312 15.148438 8.867188 14.179688 C 9.660156 13.207031 10.503906 12.28125 11.390625 11.390625 C 12.28125 10.503906 13.207031 9.660156 14.179688 8.867188 C 15.148438 8.070312 16.15625 7.324219 17.199219 6.625 C 18.242188 5.925781 19.320312 5.28125 20.425781 4.691406 C 21.535156 4.097656 22.667969 3.5625 23.828125 3.082031 C 24.988281 2.601562 26.167969 2.179688 27.367188 1.816406 C 28.570312 1.449219 29.785156 1.148438 31.015625 0.902344 C 32.25 0.65625 33.488281 0.472656 34.738281 0.351562 C 35.988281 0.226562 37.238281 0.164062 38.496094 0.164062 C 39.75 0.164062 41.003906 0.226562 42.253906 0.351562 C 43.5 0.472656 44.742188 0.65625 45.972656 0.902344 C 47.203125 1.148438 48.421875 1.449219 49.621094 1.816406 C 50.824219 2.179688 52.003906 2.601562 53.164062 3.082031 C 54.324219 3.5625 55.457031 4.097656 56.5625 4.691406 C 57.671875 5.28125 58.746094 5.925781 59.789062 6.625 C 60.835938 7.324219 61.839844 8.070312 62.8125 8.867188 C 63.78125 9.660156 64.710938 10.503906 65.597656 11.390625 C 66.488281 12.28125 67.328125 13.207031 68.125 14.179688 C 68.921875 15.148438 69.667969 16.15625 70.367188 17.199219 C 71.0625 18.242188 71.707031 19.320312 72.300781 20.425781 C 72.890625 21.535156 73.425781 22.667969 73.90625 23.828125 C 74.386719 24.988281 74.808594 26.167969 75.175781 27.367188 C 75.539062 28.570312 75.84375 29.785156 76.089844 31.015625 C 76.332031 32.25 76.519531 33.488281 76.640625 34.738281 C 76.765625 35.988281 76.824219 37.238281 76.824219 38.496094 Z M 76.824219 38.496094 "/></g></g><mask id="d6a1a8a714"><g filter="url(#a2f5a5e4a1)"><rect x="0" width="97" height="97" y="0" style="fill:#000000;fill-opacity:0.3;stroke:none;"/></g></mask></g><g clip-rule="nonzero" clip-path="url(#b76617f522)"><path style=" stroke:none;fill-rule:nonzero;fill:#9d6464;fill-opacity:1;" d="M 48.496094 0.582031 C 22 0.582031 0.582031 22 0.582031 48.496094 C 0.582031 74.992188 22 96.40625 48.496094 96.40625 C 74.992188 96.40625 96.40625 74.992188 96.40625 48.496094 C 96.40625 22 74.992188 0.582031 48.496094 0.582031 M 48.496094 86.824219 C 27.316406 86.824219 10.164062 69.671875 10.164062 48.496094 C 10.164062 27.316406 27.316406 10.164062 48.496094 10.164062 C 69.671875 10.164062 86.824219 27.316406 86.824219 48.496094 C 86.824219 69.671875 69.671875 86.824219 48.496094 86.824219 "/></g></g><mask id="712d023f25"><g filter="url(#a2f5a5e4a1)"><rect x="0" width="115.5" y="0" height="115.499996" style="fill:#000000;fill-opacity:0.71;stroke:none;"/></g></mask></g><path style=" stroke:none;fill-rule:nonzero;fill:#623a3a;fill-opacity:1;" d="M 57.304688 35.34375 L 57.304688 49.703125 C 57.304688 50.144531 57.390625 50.566406 57.558594 50.972656 C 57.726562 51.378906 57.964844 51.734375 58.277344 52.046875 C 58.585938 52.355469 58.945312 52.597656 59.351562 52.765625 C 59.757812 52.933594 60.179688 53.015625 60.621094 53.015625 L 74.980469 53.015625 L 74.980469 75.109375 C 74.980469 75.398438 74.953125 75.6875 74.894531 75.972656 C 74.839844 76.253906 74.753906 76.53125 74.644531 76.800781 C 74.53125 77.066406 74.394531 77.324219 74.234375 77.5625 C 74.074219 77.804688 73.890625 78.027344 73.683594 78.234375 C 73.480469 78.4375 73.257812 78.621094 73.015625 78.78125 C 72.773438 78.945312 72.519531 79.078125 72.253906 79.191406 C 71.984375 79.300781 71.707031 79.386719 71.421875 79.441406 C 71.136719 79.5 70.851562 79.527344 70.5625 79.527344 L 44.050781 79.527344 C 43.761719 79.527344 43.472656 79.5 43.1875 79.441406 C 42.90625 79.386719 42.628906 79.300781 42.359375 79.191406 C 42.09375 79.078125 41.835938 78.945312 41.597656 78.78125 C 41.355469 78.621094 41.132812 78.4375 40.925781 78.234375 C 40.722656 78.027344 40.539062 77.804688 40.378906 77.5625 C 40.214844 77.324219 40.078125 77.066406 39.96875 76.800781 C 39.859375 76.53125 39.773438 76.253906 39.71875 75.972656 C 39.660156 75.6875 39.632812 75.398438 39.632812 75.109375 L 39.632812 39.761719 C 39.632812 39.472656 39.660156 39.183594 39.71875 38.898438 C 39.773438 38.617188 39.859375 38.339844 39.96875 38.070312 C 40.078125 37.804688 40.214844 37.546875 40.378906 37.308594 C 40.539062 37.066406 40.722656 36.84375 40.925781 36.636719 C 41.132812 36.433594 41.355469 36.25 41.597656 36.089844 C 41.835938 35.925781 42.09375 35.789062 42.359375 35.679688 C 42.628906 35.570312 42.90625 35.484375 43.1875 35.429688 C 43.472656 35.371094 43.761719 35.34375 44.050781 35.34375 Z M 58.410156 55.226562 L 53.109375 55.226562 C 52.808594 55.226562 52.519531 55.28125 52.238281 55.386719 C 51.960938 55.492188 51.707031 55.648438 51.484375 55.847656 C 51.261719 56.046875 51.082031 56.277344 50.945312 56.546875 C 50.808594 56.8125 50.722656 57.09375 50.691406 57.390625 L 50.679688 57.65625 L 50.679688 68.480469 C 50.679688 68.761719 50.730469 69.035156 50.835938 69.296875 C 50.9375 69.558594 51.089844 69.789062 51.28125 69.996094 C 51.472656 70.199219 51.699219 70.363281 51.953125 70.480469 C 52.210938 70.601562 52.476562 70.667969 52.757812 70.683594 C 53.039062 70.699219 53.3125 70.664062 53.582031 70.578125 C 53.847656 70.488281 54.089844 70.355469 54.304688 70.171875 C 54.523438 69.992188 54.695312 69.777344 54.832031 69.53125 C 54.964844 69.28125 55.046875 69.019531 55.082031 68.738281 L 55.097656 68.480469 L 55.097656 66.273438 L 58.410156 66.273438 C 58.765625 66.273438 59.117188 66.238281 59.46875 66.171875 C 59.816406 66.105469 60.15625 66.003906 60.488281 65.871094 C 60.816406 65.738281 61.128906 65.578125 61.429688 65.382812 C 61.726562 65.191406 62.003906 64.96875 62.261719 64.722656 C 62.515625 64.476562 62.746094 64.207031 62.949219 63.914062 C 63.152344 63.625 63.328125 63.316406 63.472656 62.992188 C 63.617188 62.664062 63.726562 62.328125 63.808594 61.984375 C 63.886719 61.636719 63.933594 61.285156 63.945312 60.929688 C 63.957031 60.574219 63.933594 60.222656 63.875 59.871094 C 63.820312 59.519531 63.730469 59.175781 63.609375 58.84375 C 63.484375 58.511719 63.332031 58.191406 63.148438 57.886719 C 62.964844 57.582031 62.75 57.300781 62.511719 57.035156 C 62.273438 56.773438 62.011719 56.535156 61.726562 56.320312 C 61.441406 56.109375 61.136719 55.925781 60.816406 55.773438 C 60.496094 55.617188 60.164062 55.496094 59.820312 55.40625 C 59.476562 55.316406 59.128906 55.261719 58.773438 55.238281 Z M 58.410156 59.644531 C 58.558594 59.644531 58.699219 59.671875 58.832031 59.730469 C 58.96875 59.785156 59.089844 59.863281 59.191406 59.96875 C 59.296875 60.070312 59.375 60.191406 59.429688 60.328125 C 59.488281 60.460938 59.515625 60.601562 59.515625 60.75 C 59.515625 60.894531 59.488281 61.035156 59.429688 61.171875 C 59.375 61.308594 59.296875 61.425781 59.191406 61.53125 C 59.089844 61.632812 58.96875 61.714844 58.832031 61.769531 C 58.699219 61.824219 58.558594 61.855469 58.410156 61.855469 L 55.097656 61.855469 L 55.097656 59.644531 Z M 61.722656 35.4375 C 62.578125 35.621094 63.316406 36.019531 63.933594 36.636719 L 73.683594 46.390625 C 74.304688 47.007812 74.703125 47.742188 74.882812 48.597656 L 61.722656 48.597656 Z M 61.722656 35.4375 "/></g></svg>