<svg xmlns="http://www.w3.org/2000/svg" xmlns:xlink="http://www.w3.org/1999/xlink" width="154" zoomAndPan="magnify" viewBox="0 0 115.5 115.499996" height="154" preserveAspectRatio="xMidYMid meet" version="1.2"><defs><filter x="0%" y="0%" width="100%" filterUnits="objectBoundingBox" id="ddc620e1d8" height="100%"><feColorMatrix values="0 0 0 0 1 0 0 0 0 1 0 0 0 0 1 0 0 0 1 0" type="matrix" in="SourceGraphic"/></filter><clipPath id="0217e2e2c0"><path d="M 0.117188 0.117188 L 76.824219 0.117188 L 76.824219 76.824219 L 0.117188 76.824219 Z M 0.117188 0.117188 "/></clipPath><clipPath id="f38c20813d"><rect x="0" width="77" y="0" height="77"/></clipPath><clipPath id="c325891aa1"><path d="M 0.558594 0.558594 L 96.621094 0.558594 L 96.621094 96.621094 L 0.558594 96.621094 Z M 0.558594 0.558594 "/></clipPath><clipPath id="cad4282b0c"><rect x="0" width="97" y="0" height="97"/></clipPath></defs><g id="2a2a557624"><g mask="url(#ef568e044b)" transform="matrix(1,0,0,1,9,9)"><g clip-path="url(#cad4282b0c)"><g mask="url(#0b6420f469)" transform="matrix(1,0,0,1,10,10)"><g id="5b82e732c3" clip-path="url(#f38c20813d)"><g clip-rule="nonzero" clip-path="url(#0217e2e2c0)"><path style=" stroke:none;fill-rule:nonzero;fill:#9d6464;fill-opacity:1;" d="M 76.824219 38.496094 C 76.824219 39.75 76.765625 41.003906 76.640625 42.253906 C 76.519531 43.5 76.332031 44.742188 76.089844 45.972656 C 75.84375 47.203125 75.539062 48.421875 75.175781 49.621094 C 74.808594 50.824219 74.386719 52.003906 73.90625 53.164062 C 73.425781 54.324219 72.890625 55.457031 72.300781 56.5625 C 71.707031 57.671875 71.0625 58.746094 70.367188 59.789062 C 69.667969 60.835938 68.921875 61.839844 68.125 62.8125 C 67.328125 63.78125 66.488281 64.710938 65.597656 65.597656 C 64.710938 66.488281 63.78125 67.328125 62.8125 68.125 C 61.839844 68.921875 60.835938 69.667969 59.789062 70.367188 C 58.746094 71.0625 57.671875 71.707031 56.5625 72.300781 C 55.457031 72.890625 54.324219 73.425781 53.164062 73.90625 C 52.003906 74.386719 50.824219 74.808594 49.621094 75.175781 C 48.421875 75.539062 47.203125 75.84375 45.972656 76.089844 C 44.742188 76.332031 43.5 76.519531 42.253906 76.640625 C 41.003906 76.765625 39.75 76.824219 38.496094 76.824219 C 37.238281 76.824219 35.988281 76.765625 34.738281 76.640625 C 33.488281 76.519531 32.25 76.332031 31.015625 76.089844 C 29.785156 75.84375 28.570312 75.539062 27.367188 75.175781 C 26.167969 74.808594 24.988281 74.386719 23.828125 73.90625 C 22.667969 73.425781 21.535156 72.890625 20.425781 72.300781 C 19.320312 71.707031 18.242188 71.0625 17.199219 70.367188 C 16.15625 69.667969 15.148438 68.921875 14.179688 68.125 C 13.207031 67.328125 12.28125 66.488281 11.390625 65.597656 C 10.503906 64.710938 9.660156 63.78125 8.867188 62.8125 C 8.070312 61.839844 7.324219 60.835938 6.625 59.789062 C 5.925781 58.746094 5.28125 57.671875 4.691406 56.5625 C 4.097656 55.457031 3.5625 54.324219 3.082031 53.164062 C 2.601562 52.003906 2.179688 50.824219 1.816406 49.621094 C 1.449219 48.421875 1.148438 47.203125 0.902344 45.972656 C 0.65625 44.742188 0.472656 43.5 0.351562 42.253906 C 0.226562 41.003906 0.164062 39.75 0.164062 38.496094 C 0.164062 37.238281 0.226562 35.988281 0.351562 34.738281 C 0.472656 33.488281 0.65625 32.25 0.902344 31.015625 C 1.148438 29.785156 1.449219 28.570312 1.816406 27.367188 C 2.179688 26.167969 2.601562 24.988281 3.082031 23.828125 C 3.5625 22.667969 4.097656 21.535156 4.691406 20.425781 C 5.28125 19.320312 5.925781 18.242188 6.625 17.199219 C 7.324219 16.15625 8.070312 15.148438 8.867188 14.179688 C 9.660156 13.207031 10.503906 12.28125 11.390625 11.390625 C 12.28125 10.503906 13.207031 9.660156 14.179688 8.867188 C 15.148438 8.070312 16.15625 7.324219 17.199219 6.625 C 18.242188 5.925781 19.320312 5.28125 20.425781 4.691406 C 21.535156 4.097656 22.667969 3.5625 23.828125 3.082031 C 24.988281 2.601562 26.167969 2.179688 27.367188 1.816406 C 28.570312 1.449219 29.785156 1.148438 31.015625 0.902344 C 32.25 0.65625 33.488281 0.472656 34.738281 0.351562 C 35.988281 0.226562 37.238281 0.164062 38.496094 0.164062 C 39.75 0.164062 41.003906 0.226562 42.253906 0.351562 C 43.5 0.472656 44.742188 0.65625 45.972656 0.902344 C 47.203125 1.148438 48.421875 1.449219 49.621094 1.816406 C 50.824219 2.179688 52.003906 2.601562 53.164062 3.082031 C 54.324219 3.5625 55.457031 4.097656 56.5625 4.691406 C 57.671875 5.28125 58.746094 5.925781 59.789062 6.625 C 60.835938 7.324219 61.839844 8.070312 62.8125 8.867188 C 63.78125 9.660156 64.710938 10.503906 65.597656 11.390625 C 66.488281 12.28125 67.328125 13.207031 68.125 14.179688 C 68.921875 15.148438 69.667969 16.15625 70.367188 17.199219 C 71.0625 18.242188 71.707031 19.320312 72.300781 20.425781 C 72.890625 21.535156 73.425781 22.667969 73.90625 23.828125 C 74.386719 24.988281 74.808594 26.167969 75.175781 27.367188 C 75.539062 28.570312 75.84375 29.785156 76.089844 31.015625 C 76.332031 32.25 76.519531 33.488281 76.640625 34.738281 C 76.765625 35.988281 76.824219 37.238281 76.824219 38.496094 Z M 76.824219 38.496094 "/></g></g><mask id="0b6420f469"><g filter="url(#ddc620e1d8)"><rect x="0" width="97" height="97" y="0" style="fill:#000000;fill-opacity:0.3;stroke:none;"/></g></mask></g><g clip-rule="nonzero" clip-path="url(#c325891aa1)"><path style=" stroke:none;fill-rule:nonzero;fill:#9d6464;fill-opacity:1;" d="M 48.496094 0.582031 C 22 0.582031 0.582031 22 0.582031 48.496094 C 0.582031 74.992188 22 96.40625 48.496094 96.40625 C 74.992188 96.40625 96.40625 74.992188 96.40625 48.496094 C 96.40625 22 74.992188 0.582031 48.496094 0.582031 M 48.496094 86.824219 C 27.316406 86.824219 10.164062 69.671875 10.164062 48.496094 C 10.164062 27.316406 27.316406 10.164062 48.496094 10.164062 C 69.671875 10.164062 86.824219 27.316406 86.824219 48.496094 C 86.824219 69.671875 69.671875 86.824219 48.496094 86.824219 "/></g></g><mask id="ef568e044b"><g filter="url(#ddc620e1d8)"><rect x="0" width="115.5" y="0" height="115.499996" style="fill:#000000;fill-opacity:0.71;stroke:none;"/></g></mask></g><path style="fill:none;stroke-width:1;stroke-linecap:butt;stroke-linejoin:round;stroke:#623a3a;stroke-opacity:1;stroke-miterlimit:4;" d="M 7.563128 1.544762 L 2.499635 1.544762 L 2.499635 12.455428 L 11.500554 12.455428 L 11.500554 5.364256 M 7.563128 1.544762 L 11.500554 5.364256 M 7.563128 1.544762 L 7.563128 5.364256 L 11.500554 5.364256 M 4.499417 14.499593 L 13.500336 14.499593 L 13.500336 7.499724 M 3.999788 7.499724 L 10.000401 7.499724 M 3.999788 5.000314 L 5.99957 5.000314 M 3.999788 10.000402 L 10.000401 10.000402 " transform="matrix(3.080415,0,0,3.080415,32.886024,32.886022)"/></g></svg>