<svg xmlns="http://www.w3.org/2000/svg" xmlns:xlink="http://www.w3.org/1999/xlink" width="154" zoomAndPan="magnify" viewBox="0 0 115.5 115.499996" height="154" preserveAspectRatio="xMidYMid meet" version="1.2"><defs><filter x="0%" y="0%" width="100%" filterUnits="objectBoundingBox" id="02973a227b" height="100%"><feColorMatrix values="0 0 0 0 1 0 0 0 0 1 0 0 0 0 1 0 0 0 1 0" type="matrix" in="SourceGraphic"/></filter><clipPath id="a7a959c78c"><path d="M 0.117188 0.117188 L 76.824219 0.117188 L 76.824219 76.824219 L 0.117188 76.824219 Z M 0.117188 0.117188 "/></clipPath><clipPath id="9cc6435bbc"><rect x="0" width="77" y="0" height="77"/></clipPath><clipPath id="1b7698afa1"><path d="M 0.558594 0.558594 L 96.621094 0.558594 L 96.621094 96.621094 L 0.558594 96.621094 Z M 0.558594 0.558594 "/></clipPath><clipPath id="358d08d5a6"><rect x="0" width="97" y="0" height="97"/></clipPath></defs><g id="c5b33b1c67"><g mask="url(#5ea336cd34)" transform="matrix(1,0,0,1,9,9)"><g clip-path="url(#358d08d5a6)"><g mask="url(#7253de7dcf)" transform="matrix(1,0,0,1,10,10)"><g id="dd5eb7648b" clip-path="url(#9cc6435bbc)"><g clip-rule="nonzero" clip-path="url(#a7a959c78c)"><path style=" stroke:none;fill-rule:nonzero;fill:#9d6464;fill-opacity:1;" d="M 76.824219 38.496094 C 76.824219 39.75 76.765625 41.003906 76.640625 42.253906 C 76.519531 43.5 76.332031 44.742188 76.089844 45.972656 C 75.84375 47.203125 75.539062 48.421875 75.175781 49.621094 C 74.808594 50.824219 74.386719 52.003906 73.90625 53.164062 C 73.425781 54.324219 72.890625 55.457031 72.300781 56.5625 C 71.707031 57.671875 71.0625 58.746094 70.367188 59.789062 C 69.667969 60.835938 68.921875 61.839844 68.125 62.8125 C 67.328125 63.78125 66.488281 64.710938 65.597656 65.597656 C 64.710938 66.488281 63.78125 67.328125 62.8125 68.125 C 61.839844 68.921875 60.835938 69.667969 59.789062 70.367188 C 58.746094 71.0625 57.671875 71.707031 56.5625 72.300781 C 55.457031 72.890625 54.324219 73.425781 53.164062 73.90625 C 52.003906 74.386719 50.824219 74.808594 49.621094 75.175781 C 48.421875 75.539062 47.203125 75.84375 45.972656 76.089844 C 44.742188 76.332031 43.5 76.519531 42.253906 76.640625 C 41.003906 76.765625 39.75 76.824219 38.496094 76.824219 C 37.238281 76.824219 35.988281 76.765625 34.738281 76.640625 C 33.488281 76.519531 32.25 76.332031 31.015625 76.089844 C 29.785156 75.84375 28.570312 75.539062 27.367188 75.175781 C 26.167969 74.808594 24.988281 74.386719 23.828125 73.90625 C 22.667969 73.425781 21.535156 72.890625 20.425781 72.300781 C 19.320312 71.707031 18.242188 71.0625 17.199219 70.367188 C 16.15625 69.667969 15.148438 68.921875 14.179688 68.125 C 13.207031 67.328125 12.28125 66.488281 11.390625 65.597656 C 10.503906 64.710938 9.660156 63.78125 8.867188 62.8125 C 8.070312 61.839844 7.324219 60.835938 6.625 59.789062 C 5.925781 58.746094 5.28125 57.671875 4.691406 56.5625 C 4.097656 55.457031 3.5625 54.324219 3.082031 53.164062 C 2.601562 52.003906 2.179688 50.824219 1.816406 49.621094 C 1.449219 48.421875 1.148438 47.203125 0.902344 45.972656 C 0.65625 44.742188 0.472656 43.5 0.351562 42.253906 C 0.226562 41.003906 0.164062 39.75 0.164062 38.496094 C 0.164062 37.238281 0.226562 35.988281 0.351562 34.738281 C 0.472656 33.488281 0.65625 32.25 0.902344 31.015625 C 1.148438 29.785156 1.449219 28.570312 1.816406 27.367188 C 2.179688 26.167969 2.601562 24.988281 3.082031 23.828125 C 3.5625 22.667969 4.097656 21.535156 4.691406 20.425781 C 5.28125 19.320312 5.925781 18.242188 6.625 17.199219 C 7.324219 16.15625 8.070312 15.148438 8.867188 14.179688 C 9.660156 13.207031 10.503906 12.28125 11.390625 11.390625 C 12.28125 10.503906 13.207031 9.660156 14.179688 8.867188 C 15.148438 8.070312 16.15625 7.324219 17.199219 6.625 C 18.242188 5.925781 19.320312 5.28125 20.425781 4.691406 C 21.535156 4.097656 22.667969 3.5625 23.828125 3.082031 C 24.988281 2.601562 26.167969 2.179688 27.367188 1.816406 C 28.570312 1.449219 29.785156 1.148438 31.015625 0.902344 C 32.25 0.65625 33.488281 0.472656 34.738281 0.351562 C 35.988281 0.226562 37.238281 0.164062 38.496094 0.164062 C 39.75 0.164062 41.003906 0.226562 42.253906 0.351562 C 43.5 0.472656 44.742188 0.65625 45.972656 0.902344 C 47.203125 1.148438 48.421875 1.449219 49.621094 1.816406 C 50.824219 2.179688 52.003906 2.601562 53.164062 3.082031 C 54.324219 3.5625 55.457031 4.097656 56.5625 4.691406 C 57.671875 5.28125 58.746094 5.925781 59.789062 6.625 C 60.835938 7.324219 61.839844 8.070312 62.8125 8.867188 C 63.78125 9.660156 64.710938 10.503906 65.597656 11.390625 C 66.488281 12.28125 67.328125 13.207031 68.125 14.179688 C 68.921875 15.148438 69.667969 16.15625 70.367188 17.199219 C 71.0625 18.242188 71.707031 19.320312 72.300781 20.425781 C 72.890625 21.535156 73.425781 22.667969 73.90625 23.828125 C 74.386719 24.988281 74.808594 26.167969 75.175781 27.367188 C 75.539062 28.570312 75.84375 29.785156 76.089844 31.015625 C 76.332031 32.25 76.519531 33.488281 76.640625 34.738281 C 76.765625 35.988281 76.824219 37.238281 76.824219 38.496094 Z M 76.824219 38.496094 "/></g></g><mask id="7253de7dcf"><g filter="url(#02973a227b)"><rect x="0" width="97" height="97" y="0" style="fill:#000000;fill-opacity:0.3;stroke:none;"/></g></mask></g><g clip-rule="nonzero" clip-path="url(#1b7698afa1)"><path style=" stroke:none;fill-rule:nonzero;fill:#9d6464;fill-opacity:1;" d="M 48.496094 0.582031 C 22 0.582031 0.582031 22 0.582031 48.496094 C 0.582031 74.992188 22 96.40625 48.496094 96.40625 C 74.992188 96.40625 96.40625 74.992188 96.40625 48.496094 C 96.40625 22 74.992188 0.582031 48.496094 0.582031 M 48.496094 86.824219 C 27.316406 86.824219 10.164062 69.671875 10.164062 48.496094 C 10.164062 27.316406 27.316406 10.164062 48.496094 10.164062 C 69.671875 10.164062 86.824219 27.316406 86.824219 48.496094 C 86.824219 69.671875 69.671875 86.824219 48.496094 86.824219 "/></g></g><mask id="5ea336cd34"><g filter="url(#02973a227b)"><rect x="0" width="115.5" y="0" height="115.499996" style="fill:#000000;fill-opacity:0.71;stroke:none;"/></g></mask></g><path style="fill:none;stroke-width:2;stroke-linecap:round;stroke-linejoin:round;stroke:#623a3a;stroke-opacity:1;stroke-miterlimit:4;" d="M 17.000617 12.000243 L 17.000617 8.00065 C 17.000617 7.869201 16.987324 7.739229 16.962216 7.609257 C 16.935631 7.480762 16.898707 7.355221 16.84849 7.234111 C 16.796797 7.113 16.736242 6.997798 16.662394 6.888503 C 16.590023 6.779209 16.507314 6.678776 16.414266 6.585728 C 16.321218 6.492679 16.220785 6.40997 16.11149 6.337599 C 16.002196 6.263751 15.886993 6.203196 15.765883 6.151503 C 15.644773 6.101287 15.519231 6.064363 15.390736 6.037777 C 15.260764 6.012669 15.130792 5.999377 14.999344 5.999377 L 5.000362 5.999377 C 4.868913 5.999377 4.738941 6.012669 4.610446 6.037777 C 4.480474 6.064363 4.35641 6.101287 4.2353 6.151503 C 4.112712 6.203196 3.99751 6.263751 3.888215 6.337599 C 3.780398 6.40997 3.678488 6.492679 3.58544 6.585728 C 3.492391 6.678776 3.409682 6.779209 3.337311 6.888503 C 3.263464 6.997798 3.202908 7.113 3.152692 7.234111 C 3.102475 7.355221 3.064075 7.480762 3.038966 7.609257 C 3.012381 7.739229 3.000566 7.869201 3.000566 8.00065 L 3.000566 15.999835 C 3.000566 16.131284 3.012381 16.261256 3.038966 16.389751 C 3.064075 16.518246 3.102475 16.643787 3.152692 16.764898 C 3.202908 16.886008 3.263464 17.00121 3.337311 17.110505 C 3.409682 17.2198 3.492391 17.321709 3.58544 17.414758 C 3.678488 17.507806 3.780398 17.590515 3.888215 17.662886 C 3.99751 17.735257 4.112712 17.797289 4.2353 17.847505 C 4.35641 17.897722 4.480474 17.936122 4.610446 17.961231 C 4.738941 17.987816 4.868913 17.999631 5.000362 17.999631 L 14.999344 17.999631 C 15.130792 17.999631 15.260764 17.987816 15.390736 17.961231 C 15.519231 17.936122 15.644773 17.897722 15.765883 17.847505 C 15.886993 17.797289 16.002196 17.735257 16.11149 17.662886 C 16.220785 17.590515 16.321218 17.507806 16.414266 17.414758 C 16.507314 17.321709 16.590023 17.2198 16.662394 17.110505 C 16.736242 17.00121 16.796797 16.886008 16.84849 16.764898 C 16.898707 16.643787 16.935631 16.518246 16.962216 16.389751 C 16.987324 16.261256 17.000617 16.131284 17.000617 15.999835 Z M 17.000617 12.000243 L 21.000209 8.00065 L 21.000209 15.999835 Z M 17.000617 12.000243 " transform="matrix(2.644801,0,0,2.644801,27.849258,25.593783)"/></g></svg>