<svg xmlns="http://www.w3.org/2000/svg" xmlns:xlink="http://www.w3.org/1999/xlink" width="115" zoomAndPan="magnify" viewBox="0 0 86.25 86.249996" height="115" preserveAspectRatio="xMidYMid meet" version="1.2"><defs><filter x="0%" y="0%" width="100%" filterUnits="objectBoundingBox" id="1a5624c0d9" height="100%"><feColorMatrix values="0 0 0 0 1 0 0 0 0 1 0 0 0 0 1 0 0 0 1 0" type="matrix" in="SourceGraphic"/></filter><clipPath id="615f036301"><path d="M 0.0390625 0.0390625 L 56.664062 0.0390625 L 56.664062 56.664062 L 0.0390625 56.664062 Z M 0.0390625 0.0390625 "/></clipPath><clipPath id="9ad54ea099"><rect x="0" width="57" y="0" height="57"/></clipPath><clipPath id="c505c2603e"><path d="M 1 1 L 71.804688 1 L 71.804688 71.804688 L 1 71.804688 Z M 1 1 "/></clipPath><clipPath id="9f5bfad454"><rect x="0" width="72" y="0" height="72"/></clipPath></defs><g id="3e20ec9de9"><g mask="url(#dc46a3c4ff)" transform="matrix(1,0,0,1,6,6)"><g clip-path="url(#9f5bfad454)"><g mask="url(#a832a24d1b)" transform="matrix(1,0,0,1,8,8)"><g id="75853d416e" clip-path="url(#9ad54ea099)"><g clip-rule="nonzero" clip-path="url(#615f036301)"><path style=" stroke:none;fill-rule:nonzero;fill:#9d6464;fill-opacity:1;" d="M 56.636719 28.382812 C 56.636719 29.308594 56.589844 30.230469 56.5 31.152344 C 56.410156 32.070312 56.273438 32.984375 56.09375 33.894531 C 55.914062 34.800781 55.6875 35.699219 55.417969 36.582031 C 55.152344 37.46875 54.839844 38.339844 54.484375 39.195312 C 54.132812 40.050781 53.734375 40.882812 53.300781 41.699219 C 52.863281 42.515625 52.386719 43.308594 51.875 44.078125 C 51.359375 44.847656 50.808594 45.589844 50.222656 46.304688 C 49.636719 47.019531 49.015625 47.707031 48.359375 48.359375 C 47.707031 49.015625 47.019531 49.636719 46.304688 50.222656 C 45.589844 50.808594 44.847656 51.359375 44.078125 51.875 C 43.308594 52.386719 42.515625 52.863281 41.699219 53.300781 C 40.882812 53.734375 40.050781 54.132812 39.195312 54.484375 C 38.339844 54.839844 37.46875 55.152344 36.582031 55.417969 C 35.699219 55.6875 34.800781 55.914062 33.894531 56.09375 C 32.984375 56.273438 32.070312 56.410156 31.152344 56.5 C 30.230469 56.589844 29.308594 56.636719 28.382812 56.636719 C 27.457031 56.636719 26.53125 56.589844 25.613281 56.5 C 24.691406 56.410156 23.777344 56.273438 22.871094 56.09375 C 21.960938 55.914062 21.066406 55.6875 20.179688 55.417969 C 19.292969 55.152344 18.425781 54.839844 17.570312 54.484375 C 16.714844 54.132812 15.878906 53.734375 15.0625 53.300781 C 14.246094 52.863281 13.453125 52.386719 12.683594 51.875 C 11.914062 51.359375 11.171875 50.808594 10.457031 50.222656 C 9.742188 49.636719 9.058594 49.015625 8.402344 48.359375 C 7.75 47.707031 7.128906 47.019531 6.539062 46.304688 C 5.953125 45.589844 5.402344 44.847656 4.890625 44.078125 C 4.375 43.308594 3.898438 42.515625 3.464844 41.699219 C 3.027344 40.882812 2.632812 40.050781 2.277344 39.195312 C 1.921875 38.339844 1.613281 37.46875 1.34375 36.582031 C 1.074219 35.699219 0.851562 34.800781 0.671875 33.894531 C 0.488281 32.984375 0.355469 32.070312 0.261719 31.152344 C 0.171875 30.230469 0.128906 29.308594 0.128906 28.382812 C 0.128906 27.457031 0.171875 26.53125 0.261719 25.613281 C 0.355469 24.691406 0.488281 23.777344 0.671875 22.871094 C 0.851562 21.960938 1.074219 21.066406 1.34375 20.179688 C 1.613281 19.292969 1.921875 18.425781 2.277344 17.570312 C 2.632812 16.714844 3.027344 15.878906 3.464844 15.0625 C 3.898438 14.246094 4.375 13.453125 4.890625 12.683594 C 5.402344 11.914062 5.953125 11.171875 6.539062 10.457031 C 7.128906 9.742188 7.75 9.058594 8.402344 8.402344 C 9.058594 7.75 9.742188 7.128906 10.457031 6.539062 C 11.171875 5.953125 11.914062 5.402344 12.683594 4.890625 C 13.453125 4.375 14.246094 3.898438 15.0625 3.464844 C 15.878906 3.027344 16.714844 2.632812 17.570312 2.277344 C 18.425781 1.921875 19.292969 1.613281 20.179688 1.34375 C 21.066406 1.074219 21.960938 0.851562 22.871094 0.671875 C 23.777344 0.488281 24.691406 0.355469 25.613281 0.261719 C 26.53125 0.171875 27.457031 0.128906 28.382812 0.128906 C 29.308594 0.128906 30.230469 0.171875 31.152344 0.261719 C 32.070312 0.355469 32.984375 0.488281 33.894531 0.671875 C 34.800781 0.851562 35.699219 1.074219 36.582031 1.34375 C 37.46875 1.613281 38.339844 1.921875 39.195312 2.277344 C 40.050781 2.632812 40.882812 3.027344 41.699219 3.464844 C 42.515625 3.898438 43.308594 4.375 44.078125 4.890625 C 44.847656 5.402344 45.589844 5.953125 46.304688 6.539062 C 47.019531 7.128906 47.707031 7.75 48.359375 8.402344 C 49.015625 9.058594 49.636719 9.742188 50.222656 10.457031 C 50.808594 11.171875 51.359375 11.914062 51.875 12.683594 C 52.386719 13.453125 52.863281 14.246094 53.300781 15.0625 C 53.734375 15.878906 54.132812 16.714844 54.484375 17.570312 C 54.839844 18.425781 55.152344 19.292969 55.417969 20.179688 C 55.6875 21.066406 55.914062 21.960938 56.09375 22.871094 C 56.273438 23.777344 56.410156 24.691406 56.5 25.613281 C 56.589844 26.53125 56.636719 27.457031 56.636719 28.382812 Z M 56.636719 28.382812 "/></g></g><mask id="a832a24d1b"><g filter="url(#1a5624c0d9)"><rect x="0" width="72" height="72" y="0" style="fill:#000000;fill-opacity:0.3;stroke:none;"/></g></mask></g><g clip-rule="nonzero" clip-path="url(#c505c2603e)"><path style=" stroke:none;fill-rule:nonzero;fill:#9d6464;fill-opacity:1;" d="M 36.382812 1.0625 C 16.851562 1.0625 1.0625 16.851562 1.0625 36.382812 C 1.0625 55.914062 16.851562 71.699219 36.382812 71.699219 C 55.914062 71.699219 71.699219 55.914062 71.699219 36.382812 C 71.699219 16.851562 55.914062 1.0625 36.382812 1.0625 M 36.382812 64.636719 C 20.769531 64.636719 8.128906 51.992188 8.128906 36.382812 C 8.128906 20.769531 20.769531 8.128906 36.382812 8.128906 C 51.992188 8.128906 64.636719 20.769531 64.636719 36.382812 C 64.636719 51.992188 51.992188 64.636719 36.382812 64.636719 "/></g></g><mask id="dc46a3c4ff"><g filter="url(#1a5624c0d9)"><rect x="0" width="86.25" y="0" height="86.249996" style="fill:#000000;fill-opacity:0.71;stroke:none;"/></g></mask></g><path style=" stroke:none;fill-rule:nonzero;fill:#623a3a;fill-opacity:1;" d="M 51.960938 42.261719 C 51.960938 47.617188 47.429688 51.363281 42.5 51.363281 C 37.574219 51.363281 33.042969 47.617188 33.042969 42.261719 L 30.007812 42.261719 C 30.007812 48.347656 34.863281 53.382812 40.71875 54.257812 L 40.71875 60.109375 L 44.285156 60.109375 L 44.285156 54.257812 C 50.140625 53.382812 54.996094 48.347656 54.996094 42.261719 M 40.359375 31.375 C 40.359375 30.199219 41.324219 29.234375 42.5 29.234375 C 43.679688 29.234375 44.644531 30.199219 44.644531 31.375 L 44.625 42.441406 C 44.625 43.621094 43.679688 44.582031 42.5 44.582031 C 41.324219 44.582031 40.359375 43.621094 40.359375 42.441406 M 42.5 47.617188 C 42.851562 47.617188 43.203125 47.582031 43.546875 47.515625 C 43.890625 47.445312 44.226562 47.34375 44.550781 47.210938 C 44.875 47.074219 45.183594 46.910156 45.476562 46.714844 C 45.769531 46.519531 46.039062 46.296875 46.289062 46.050781 C 46.535156 45.800781 46.757812 45.53125 46.953125 45.238281 C 47.148438 44.945312 47.3125 44.636719 47.449219 44.3125 C 47.582031 43.988281 47.683594 43.652344 47.753906 43.308594 C 47.820312 42.960938 47.855469 42.613281 47.855469 42.261719 L 47.855469 31.554688 C 47.855469 31.203125 47.820312 30.855469 47.753906 30.507812 C 47.683594 30.164062 47.582031 29.828125 47.449219 29.503906 C 47.3125 29.179688 47.148438 28.871094 46.953125 28.578125 C 46.757812 28.289062 46.535156 28.015625 46.289062 27.769531 C 46.039062 27.519531 45.769531 27.296875 45.476562 27.101562 C 45.183594 26.90625 44.875 26.742188 44.550781 26.609375 C 44.226562 26.472656 43.890625 26.371094 43.546875 26.304688 C 43.203125 26.234375 42.851562 26.199219 42.5 26.199219 C 42.148438 26.199219 41.800781 26.234375 41.457031 26.304688 C 41.113281 26.371094 40.777344 26.472656 40.453125 26.609375 C 40.128906 26.742188 39.820312 26.90625 39.527344 27.101562 C 39.234375 27.296875 38.964844 27.519531 38.714844 27.769531 C 38.46875 28.015625 38.246094 28.289062 38.050781 28.578125 C 37.855469 28.871094 37.691406 29.179688 37.554688 29.503906 C 37.421875 29.828125 37.320312 30.164062 37.25 30.507812 C 37.183594 30.855469 37.148438 31.203125 37.148438 31.554688 L 37.148438 42.261719 C 37.148438 42.613281 37.183594 42.960938 37.25 43.308594 C 37.320312 43.652344 37.421875 43.988281 37.554688 44.3125 C 37.691406 44.636719 37.855469 44.945312 38.050781 45.238281 C 38.246094 45.53125 38.46875 45.800781 38.714844 46.050781 C 38.964844 46.296875 39.234375 46.519531 39.527344 46.714844 C 39.820312 46.910156 40.128906 47.074219 40.453125 47.210938 C 40.777344 47.34375 41.113281 47.445312 41.457031 47.515625 C 41.800781 47.582031 42.148438 47.617188 42.5 47.617188 "/></g></svg>