<svg xmlns="http://www.w3.org/2000/svg" xmlns:xlink="http://www.w3.org/1999/xlink" width="534" zoomAndPan="magnify" viewBox="0 0 400.5 199.499995" height="266" preserveAspectRatio="xMidYMid meet" version="1.2"><defs><clipPath id="afe9c18a7a"><path d="M 0.25 0 L 399.75 0 L 399.75 199 L 0.25 199 Z M 0.25 0 "/></clipPath><filter x="0%" y="0%" width="100%" filterUnits="objectBoundingBox" id="b93f260395" height="100%"><feColorMatrix values="0 0 0 0 1 0 0 0 0 1 0 0 0 0 1 0 0 0 1 0" type="matrix" in="SourceGraphic"/></filter><clipPath id="535289ceba"><path d="M 0.25 0 L 399.589844 0 L 399.589844 198.894531 L 0.25 198.894531 Z M 0.25 0 "/></clipPath><clipPath id="e16cdb553a"><path d="M 30.175781 0 L 369.519531 0 C 386.046875 0 399.445312 13.398438 399.445312 29.925781 L 399.445312 168.96875 C 399.445312 185.496094 386.046875 198.894531 369.519531 198.894531 L 30.175781 198.894531 C 13.648438 198.894531 0.25 185.496094 0.25 168.96875 L 0.25 29.925781 C 0.25 13.398438 13.648438 0 30.175781 0 Z M 30.175781 0 "/></clipPath><clipPath id="f6eb37c69c"><rect x="0" width="400" y="0" height="199"/></clipPath></defs><g id="f26f1ec05f"><g clip-rule="nonzero" clip-path="url(#afe9c18a7a)"><g mask="url(#5d70bb79e4)" transform="matrix(1,0,0,1,0,0)"><g clip-path="url(#f6eb37c69c)"><g clip-rule="nonzero" clip-path="url(#535289ceba)"><g clip-rule="nonzero" clip-path="url(#e16cdb553a)"><path style=" stroke:none;fill-rule:nonzero;fill:#545454;fill-opacity:1;" d="M 0.25 0 L 399.589844 0 L 399.589844 198.894531 L 0.25 198.894531 Z M 0.25 0 "/></g></g></g><mask id="5d70bb79e4"><g filter="url(#b93f260395)"><rect x="0" width="400.5" y="0" height="199.499995" style="fill:#000000;fill-opacity:0.45;stroke:none;"/></g></mask></g></g><g style="fill:#545454;fill-opacity:1;"><g transform="translate(136.7806, 129.728449)"><path style="stroke:none" d="M 8.984375 -17.644531 L 5.910156 -17.644531 L 5.910156 -14.574219 C 5.910156 -10.53125 4.296875 -6.398438 0.691406 -4.734375 L 2.585938 -2.285156 C 4.964844 -3.488281 6.558594 -5.703125 7.484375 -8.429688 C 8.359375 -5.867188 9.90625 -3.789062 12.238281 -2.65625 L 14.042969 -5.082031 C 10.53125 -6.652344 8.984375 -10.554688 8.984375 -14.574219 Z M 15.796875 -19.304688 L 15.796875 -12.632812 L 11.707031 -12.632812 L 11.707031 -10.183594 L 15.796875 -10.183594 L 15.796875 2.03125 L 18.84375 2.03125 L 18.84375 -19.304688 Z M 15.796875 -19.304688 "/></g></g><g style="fill:#545454;fill-opacity:1;"><g transform="translate(158.02509, 129.728449)"><path style="stroke:none" d="M 15.566406 -19.304688 L 15.566406 2.03125 L 18.613281 2.03125 L 18.613281 -19.304688 Z M 2.03125 -17.597656 L 2.03125 -2.933594 L 12.515625 -2.933594 L 12.515625 -17.597656 L 9.492188 -17.597656 L 9.492188 -12.449219 L 5.058594 -12.449219 L 5.058594 -17.597656 Z M 5.058594 -10.070312 L 9.492188 -10.070312 L 9.492188 -5.359375 L 5.058594 -5.359375 Z M 5.058594 -10.070312 "/></g></g><g style="fill:#545454;fill-opacity:1;"><g transform="translate(179.269579, 129.728449)"><path style="stroke:none" d="M 19.582031 -9.261719 C 14.78125 -10.09375 12.148438 -13.394531 12.148438 -16.511719 L 12.148438 -18.035156 L 8.890625 -18.035156 L 8.890625 -16.511719 C 8.890625 -13.464844 6.234375 -10.09375 1.453125 -9.261719 L 2.75 -6.71875 C 6.441406 -7.4375 9.144531 -9.515625 10.507812 -12.214844 C 11.871094 -9.515625 14.59375 -7.460938 18.289062 -6.71875 Z M 0.992188 -3.070312 L 0.992188 -0.601562 L 20.253906 -0.601562 L 20.253906 -3.070312 Z M 0.992188 -3.070312 "/></g></g><g style="fill:#545454;fill-opacity:1;"><g transform="translate(200.514068, 129.728449)"><path style="stroke:none" d=""/></g></g><g style="fill:#545454;fill-opacity:1;"><g transform="translate(206.702683, 129.728449)"><path style="stroke:none" d="M 2.933594 -9.699219 C 6.90625 -10.136719 9.515625 -11.777344 10.601562 -13.949219 C 11.730469 -11.777344 14.316406 -10.136719 18.265625 -9.699219 L 19.375 -12.078125 C 15.21875 -12.539062 13.117188 -14.25 12.769531 -15.957031 L 18.5 -15.957031 L 18.5 -18.382812 L 2.75 -18.382812 L 2.75 -15.957031 L 8.453125 -15.957031 C 8.082031 -14.273438 5.957031 -12.539062 1.847656 -12.078125 Z M 6.257812 -4.503906 L 3.210938 -4.503906 L 3.210938 1.617188 L 18.105469 1.617188 L 18.105469 -0.808594 L 6.257812 -0.808594 Z M 0.96875 -8.683594 L 0.96875 -6.28125 L 9.351562 -6.28125 L 9.351562 -2.679688 L 12.402344 -2.679688 L 12.402344 -6.28125 L 20.253906 -6.28125 L 20.253906 -8.683594 Z M 0.96875 -8.683594 "/></g></g><g style="fill:#545454;fill-opacity:1;"><g transform="translate(227.947172, 129.728449)"><path style="stroke:none" d="M 15.566406 -19.304688 L 15.566406 2.03125 L 18.613281 2.03125 L 18.613281 -19.304688 Z M 2.03125 -17.597656 L 2.03125 -2.933594 L 12.515625 -2.933594 L 12.515625 -17.597656 L 9.492188 -17.597656 L 9.492188 -12.449219 L 5.058594 -12.449219 L 5.058594 -17.597656 Z M 5.058594 -10.070312 L 9.492188 -10.070312 L 9.492188 -5.359375 L 5.058594 -5.359375 Z M 5.058594 -10.070312 "/></g></g><g style="fill:#545454;fill-opacity:1;"><g transform="translate(249.191667, 129.728449)"><path style="stroke:none" d="M 2.839844 -10.460938 C 6.859375 -10.808594 9.46875 -12.308594 10.601562 -14.316406 C 11.730469 -12.308594 14.339844 -10.808594 18.335938 -10.460938 L 19.398438 -12.816406 C 15.425781 -13.164062 13.347656 -14.550781 12.816406 -15.980469 L 18.476562 -15.980469 L 18.476562 -18.40625 L 2.75 -18.40625 L 2.75 -15.980469 L 8.382812 -15.980469 C 7.851562 -14.550781 5.773438 -13.164062 1.824219 -12.816406 Z M 14.847656 -1.847656 C 14.847656 -0.785156 13.394531 -0.324219 10.554688 -0.324219 C 7.714844 -0.324219 6.257812 -0.785156 6.257812 -1.847656 C 6.257812 -2.933594 7.714844 -3.394531 10.554688 -3.394531 C 13.394531 -3.394531 14.847656 -2.933594 14.847656 -1.847656 Z M 20.207031 -7.207031 L 20.207031 -9.628906 L 0.992188 -9.628906 L 0.992188 -7.207031 L 9.074219 -7.207031 L 9.074219 -5.65625 C 5.382812 -5.359375 3.1875 -4.042969 3.1875 -1.847656 C 3.1875 0.601562 5.957031 2.007812 10.554688 2.007812 C 15.148438 2.007812 17.945312 0.601562 17.945312 -1.847656 C 17.945312 -4.019531 15.773438 -5.335938 12.125 -5.636719 L 12.125 -7.207031 Z M 20.207031 -7.207031 "/></g></g><g style="fill:#545454;fill-opacity:1;"><g transform="translate(270.43615, 129.728449)"><path style="stroke:none" d="M 2.859375 0.25 C 2.335938 0.25 1.890625 0.0703125 1.515625 -0.28125 C 1.148438 -0.644531 0.96875 -1.085938 0.96875 -1.609375 C 0.96875 -2.109375 1.15625 -2.535156 1.53125 -2.890625 C 1.90625 -3.253906 2.347656 -3.4375 2.859375 -3.4375 C 3.359375 -3.4375 3.785156 -3.253906 4.140625 -2.890625 C 4.492188 -2.535156 4.671875 -2.109375 4.671875 -1.609375 C 4.671875 -1.085938 4.492188 -0.644531 4.140625 -0.28125 C 3.785156 0.0703125 3.359375 0.25 2.859375 0.25 Z M 2.859375 0.25 "/></g></g><g style="fill:#545454;fill-opacity:1;"><g transform="translate(276.070556, 129.728449)"><path style="stroke:none" d="M 2.859375 0.25 C 2.335938 0.25 1.890625 0.0703125 1.515625 -0.28125 C 1.148438 -0.644531 0.96875 -1.085938 0.96875 -1.609375 C 0.96875 -2.109375 1.15625 -2.535156 1.53125 -2.890625 C 1.90625 -3.253906 2.347656 -3.4375 2.859375 -3.4375 C 3.359375 -3.4375 3.785156 -3.253906 4.140625 -2.890625 C 4.492188 -2.535156 4.671875 -2.109375 4.671875 -1.609375 C 4.671875 -1.085938 4.492188 -0.644531 4.140625 -0.28125 C 3.785156 0.0703125 3.359375 0.25 2.859375 0.25 Z M 2.859375 0.25 "/></g></g><path style=" stroke:none;fill-rule:nonzero;fill:#545454;fill-opacity:1;" d="M 232.511719 83.277344 L 227.417969 78.1875 C 227.257812 78.027344 227.074219 77.90625 226.867188 77.820312 C 226.660156 77.730469 226.445312 77.6875 226.21875 77.6875 C 225.992188 77.6875 225.777344 77.730469 225.570312 77.820312 C 225.363281 77.90625 225.179688 78.027344 225.019531 78.1875 L 209.246094 93.957031 L 209.246094 101.449219 L 216.738281 101.449219 L 232.511719 85.675781 C 232.667969 85.519531 232.792969 85.335938 232.878906 85.125 C 232.964844 84.917969 233.007812 84.703125 233.007812 84.476562 C 233.007812 84.253906 232.964844 84.035156 232.878906 83.828125 C 232.792969 83.621094 232.667969 83.4375 232.511719 83.277344 M 215.332031 98.054688 L 212.640625 98.054688 L 212.640625 95.363281 L 221.128906 86.878906 L 223.820312 89.570312 Z M 226.21875 87.167969 L 223.527344 84.476562 L 226.21875 81.785156 L 228.910156 84.476562 Z M 216.035156 72.597656 L 216.035156 69.203125 L 212.402344 69.203125 C 212.242188 68.59375 212 68.015625 211.679688 67.472656 L 214.253906 64.898438 L 211.855469 62.5 L 209.28125 65.074219 C 208.738281 64.753906 208.160156 64.511719 207.550781 64.351562 L 207.550781 60.71875 L 204.15625 60.71875 L 204.15625 64.351562 C 203.546875 64.511719 202.96875 64.753906 202.425781 65.074219 L 199.851562 62.5 L 197.453125 64.898438 L 200.027344 67.472656 C 199.707031 68.015625 199.464844 68.59375 199.304688 69.203125 L 195.671875 69.203125 L 195.671875 72.597656 L 199.304688 72.597656 C 199.464844 73.207031 199.707031 73.785156 200.027344 74.328125 L 197.453125 76.902344 L 199.851562 79.300781 L 202.425781 76.726562 C 202.96875 77.046875 203.546875 77.289062 204.15625 77.449219 L 204.15625 81.082031 L 207.550781 81.082031 L 207.550781 77.449219 C 208.160156 77.289062 208.738281 77.046875 209.28125 76.726562 L 211.855469 79.300781 L 214.253906 76.902344 L 211.679688 74.328125 C 212 73.785156 212.242188 73.207031 212.402344 72.597656 Z M 205.851562 74.292969 C 205.402344 74.292969 204.96875 74.207031 204.554688 74.035156 C 204.136719 73.863281 203.769531 73.617188 203.453125 73.300781 C 203.132812 72.980469 202.890625 72.613281 202.71875 72.199219 C 202.542969 71.785156 202.457031 71.351562 202.457031 70.898438 C 202.457031 70.449219 202.542969 70.015625 202.71875 69.601562 C 202.890625 69.1875 203.132812 68.820312 203.453125 68.5 C 203.769531 68.183594 204.136719 67.9375 204.554688 67.765625 C 204.96875 67.59375 205.402344 67.507812 205.851562 67.507812 C 206.304688 67.507812 206.734375 67.59375 207.152344 67.765625 C 207.566406 67.9375 207.933594 68.183594 208.253906 68.5 C 208.570312 68.820312 208.816406 69.1875 208.988281 69.601562 C 209.160156 70.015625 209.246094 70.449219 209.246094 70.898438 C 209.246094 71.351562 209.160156 71.78125 208.988281 72.199219 C 208.816406 72.613281 208.570312 72.980469 208.25 73.300781 C 207.933594 73.617188 207.566406 73.863281 207.152344 74.035156 C 206.734375 74.207031 206.304688 74.292969 205.851562 74.292969 "/><path style=" stroke:none;fill-rule:nonzero;fill:#545454;fill-opacity:1;" d="M 202.457031 101.449219 L 192.277344 101.449219 C 191.824219 101.449219 191.394531 101.363281 190.976562 101.191406 C 190.5625 101.019531 190.195312 100.773438 189.875 100.453125 C 189.558594 100.136719 189.3125 99.769531 189.140625 99.351562 C 188.96875 98.9375 188.882812 98.503906 188.882812 98.054688 L 188.882812 57.324219 C 188.882812 56.875 188.96875 56.441406 189.140625 56.023438 C 189.3125 55.609375 189.558594 55.242188 189.875 54.921875 C 190.195312 54.605469 190.5625 54.359375 190.976562 54.1875 C 191.394531 54.015625 191.824219 53.929688 192.277344 53.929688 L 219.429688 53.929688 C 219.878906 53.929688 220.3125 54.015625 220.730469 54.1875 C 221.144531 54.359375 221.511719 54.605469 221.832031 54.921875 C 222.148438 55.242188 222.394531 55.609375 222.566406 56.023438 C 222.738281 56.441406 222.824219 56.875 222.824219 57.324219 L 222.824219 74.292969 L 219.429688 74.292969 L 219.429688 57.324219 L 192.277344 57.324219 L 192.277344 98.054688 L 202.457031 98.054688 Z M 202.457031 101.449219 "/></g></svg>